<svg height="512pt" viewBox="0 -51 512.00058 512" width="512pt" xmlns="http://www.w3.org/2000/svg"><path d="m68.265625 131.96875v.296875c0 11.785156-9.550781 21.335937-21.332031 21.335937s-21.332032-9.550781-21.332032-21.335937c0-11.78125 9.550782-21.332031 21.332032-21.332031 1.871094 0 3.738281.242187 5.546875.726562zm0 0" fill="#2296f3"/><path d="m213.597656 298.667969h84.804688c4.859375 0 8.796875 3.9375 8.796875 8.796875v84.804687c0 4.859375-3.9375 8.796875-8.796875 8.796875h-84.804688c-4.859375 0-8.796875-3.9375-8.796875-8.796875v-84.804687c0-4.859375 3.9375-8.796875 8.796875-8.796875zm0 0" fill="#4caf50"/><path d="m204.800781 59.734375h102.398438v85.332031c0 4.714844-3.820313 8.535156-8.53125 8.535156h-85.335938c-4.710937 0-8.53125-3.820312-8.53125-8.535156zm0 0" fill="#ffeb3a"/><path d="m494.933594 68.265625v68.269531c0 4.710938-3.820313 8.53125-8.535156 8.53125h-68.265626c-4.710937 0-8.53125-3.820312-8.53125-8.53125v-68.269531zm0 0" fill="#f57c00"/><path d="m469.332031 68.265625v68.269531c0 4.710938-3.820312 8.53125-8.53125 8.53125h-42.667969c-4.710937 0-8.53125-3.820312-8.53125-8.53125v-68.269531zm0 0" fill="#ff9801"/><path d="m496.230469 68.265625h-87.894531c-6.75 0-9.8125-9.855469-4.625-14.90625l41.925781-25.761719c4.09375-2.386718 9.152343-2.386718 13.242187 0l41.96875 25.769532c5.179688 5.042968 2.140625 14.898437-4.617187 14.898437zm0 0" fill="#ff5722"/><path d="m307.199219 59.734375h-102.398438l6.917969-27.691406c.957031-3.78125 4.355469-6.433594 8.253906-6.441407h72.054688c3.898437.007813 7.296875 2.660157 8.253906 6.441407zm0 0" fill="#ffeb3a"/><path d="m409.855469 298.667969h84.820312c4.855469 0 8.789063 3.933593 8.789063 8.789062v84.820313c0 4.855468-3.933594 8.789062-8.789063 8.789062h-84.820312c-4.855469 0-8.789063-3.933594-8.789063-8.789062v-84.820313c0-4.855469 3.933594-8.789062 8.789063-8.789062zm0 0" fill="#607d8b"/><path d="m409.855469 298.667969h59.222656c4.851563 0 8.789063 3.933593 8.789063 8.789062v84.820313c0 4.855468-3.9375 8.789062-8.789063 8.789062h-59.222656c-4.855469 0-8.789063-3.933594-8.789063-8.789062v-84.820313c0-4.855469 3.933594-8.789062 8.789063-8.789062zm0 0" fill="#cfd8dc"/><path d="m17.332031 298.667969h84.804688c4.859375 0 8.796875 3.9375 8.796875 8.796875v84.804687c0 4.859375-3.9375 8.796875-8.796875 8.796875h-84.804688c-4.859375 0-8.796875-3.9375-8.796875-8.796875v-84.804687c0-4.859375 3.9375-8.796875 8.796875-8.796875zm0 0" fill="#4caf50"/><path d="m51.199219 29.867188c0 11.78125-9.550781 21.332031-21.332031 21.332031s-21.332032-9.550781-21.332032-21.332031 9.550782-21.332032 21.332032-21.332032 21.332031 9.550782 21.332031 21.332032zm0 0" fill="#2296f3"/><path d="m119.464844 102.398438c0 18.851562-15.28125 34.136718-34.132813 34.136718-18.851562 0-34.132812-15.285156-34.132812-34.136718 0-18.847657 15.28125-34.132813 34.132812-34.132813 18.851563 0 34.132813 15.285156 34.132813 34.132813zm0 0" fill="#00bcd4"/><path d="m298.402344 409.601562h-84.804688c-9.566406-.011718-17.320312-7.765624-17.332031-17.332031v-84.804687c.011719-9.566406 7.765625-17.320313 17.332031-17.332032h84.804688c9.566406.011719 17.320312 7.765626 17.332031 17.332032v84.804687c-.011719 9.566407-7.765625 17.320313-17.332031 17.332031zm-84.804688-102.402343-.265625 85.070312 85.070313.265625c.144531 0 .265625-.121094.265625-.265625v-84.804687zm0 0"/><path d="m298.667969 162.132812h-85.335938c-9.425781 0-17.066406-7.640624-17.066406-17.066406v-85.332031c0-4.714844 3.820313-8.535156 8.535156-8.535156h102.398438c4.714843 0 8.535156 3.820312 8.535156 8.535156v85.332031c0 9.425782-7.640625 17.066406-17.066406 17.066406zm-85.335938-93.867187v76.800781h85.335938v-76.800781zm0 0"/><path d="m486.398438 153.601562h-68.265626c-9.425781 0-17.066406-7.640624-17.066406-17.066406v-68.269531c0-4.710937 3.820313-8.53125 8.535156-8.53125h85.332032c4.710937 0 8.53125 3.820313 8.53125 8.53125v68.269531c0 9.425782-7.640625 17.066406-17.066406 17.066406zm-68.265626-76.800781v59.734375h68.265626v-59.734375zm0 0"/><path d="m496.222656 76.800781h-87.894531c-6.445313-.046875-12.1875-4.078125-14.429687-10.121093-2.738282-6.664063-1.21875-14.324219 3.855468-19.4375.453125-.4375.945313-.824219 1.476563-1.152344l41.941406-25.761719c6.753906-4 15.136719-4.054687 21.941406-.148437l42.207031 25.902343c.53125.332031 1.027344.714844 1.484376 1.148438 5.074218 5.117187 6.589843 12.777343 3.847656 19.441406-2.242188 6.042969-7.984375 10.078125-14.429688 10.128906zm-86.5625-17.066406h85.273438l-40.492188-24.875c-1.425781-.777344-3.15625-.722656-4.53125.144531zm0 0"/><path d="m307.199219 68.265625h-102.398438c-2.628906 0-5.109375-1.210937-6.726562-3.28125-1.617188-2.074219-2.191407-4.773437-1.550781-7.324219l6.917968-27.691406c1.910156-7.578125 8.71875-12.890625 16.53125-12.902344h72.054688c7.8125.007813 14.621094 5.320313 16.53125 12.894532l6.917968 27.699218c.640626 2.550782.066407 5.25-1.550781 7.324219-1.617187 2.070313-4.097656 3.28125-6.726562 3.28125zm-91.476563-17.066406h80.546875l-4.265625-17.066407h-72.03125zm0 0"/><path d="m247.464844 375.46875c-2.261719-.003906-4.429688-.902344-6.03125-2.503906l-8.535156-8.53125c-3.230469-3.347656-3.1875-8.671875.105468-11.960938 3.292969-3.292968 8.613282-3.339844 11.960938-.105468l2.5 2.5 19.570312-19.566407c3.347656-3.234375 8.667969-3.1875 11.960938.105469 3.292968 3.289062 3.335937 8.613281.105468 11.960938l-25.601562 25.597656c-1.601562 1.601562-3.769531 2.5-6.035156 2.503906zm0 0"/><path d="m494.667969 409.601562h-84.804688c-9.566406-.011718-17.320312-7.765624-17.328125-17.332031v-84.804687c.007813-9.566406 7.761719-17.320313 17.328125-17.332032h84.804688c9.570312.011719 17.324219 7.765626 17.332031 17.332032v84.804687c-.007812 9.566407-7.761719 17.320313-17.332031 17.332031zm-84.804688-102.402343-.261719 85.070312 85.066407.265625c.144531-.007812.261719-.121094.265625-.265625v-84.804687zm0 0"/><path d="m102.136719 409.601562h-84.804688c-9.570312-.011718-17.3242185-7.765624-17.332031-17.332031v-84.804687c.0078125-9.566406 7.761719-17.320313 17.332031-17.332032h84.804688c9.566406.011719 17.320312 7.765626 17.328125 17.332032v84.804687c-.007813 9.566407-7.761719 17.320313-17.328125 17.332031zm-84.804688-102.402343-.265625 85.070312 85.070313.265625c.070312 0 .136719-.03125.1875-.078125.046875-.050781.074219-.117187.074219-.1875v-84.804687zm0 0"/><path d="m51.199219 375.46875c-2.261719-.003906-4.433594-.902344-6.03125-2.503906l-8.535157-8.53125c-3.234374-3.347656-3.1875-8.671875.105469-11.960938 3.289063-3.292968 8.613281-3.339844 11.960938-.105468l2.5 2.5 19.566406-19.566407c3.347656-3.234375 8.671875-3.1875 11.964844.105469 3.289062 3.289062 3.335937 8.613281.101562 11.960938l-25.597656 25.597656c-1.601563 1.601562-3.769531 2.5-6.035156 2.503906zm0 0"/><path d="m273.066406 102.398438h-34.132812c-4.714844 0-8.535156-3.820313-8.535156-8.53125 0-4.714844 3.820312-8.535157 8.535156-8.535157h34.132812c4.714844 0 8.535156 3.820313 8.535156 8.535157 0 4.710937-3.820312 8.53125-8.535156 8.53125zm0 0"/><path d="m29.867188 59.734375c-16.496094 0-29.867188-13.371094-29.867188-29.867187 0-16.496094 13.371094-29.867188 29.867188-29.867188 16.496093 0 29.867187 13.371094 29.867187 29.867188 0 7.921874-3.148437 15.519531-8.75 21.117187-5.601563 5.601563-13.195313 8.75-21.117187 8.75zm0-42.667969c-7.070313 0-12.800782 5.730469-12.800782 12.800782 0 7.070312 5.730469 12.800781 12.800782 12.800781 7.070312 0 12.800781-5.730469 12.800781-12.800781 0-7.070313-5.730469-12.800782-12.800781-12.800782zm0 0"/><path d="m85.332031 145.066406c-23.5625 0-42.664062-19.101562-42.664062-42.667968 0-23.5625 19.101562-42.664063 42.664062-42.664063 23.566407 0 42.667969 19.101563 42.667969 42.664063-.027344 23.554687-19.113281 42.640624-42.667969 42.667968zm0-68.265625c-14.136719 0-25.597656 11.460938-25.597656 25.597657 0 14.140624 11.460937 25.601562 25.597656 25.601562 14.140625 0 25.601563-11.460938 25.601563-25.601562 0-14.136719-11.460938-25.597657-25.601563-25.597657zm0 0"/><path d="m46.933594 162.132812c-11.609375-.003906-22.164063-6.734374-27.0625-17.257812-4.902344-10.523438-3.261719-22.933594 4.207031-31.820312 7.46875-8.890626 19.410156-12.644532 30.621094-9.628907 2.984375.753907 5.328125 3.0625 6.132812 6.03125.808594 2.96875-.046875 6.144531-2.234375 8.308594-2.191406 2.164063-5.375 2.980469-8.335937 2.136719-5.296875-1.425782-10.914063.679687-13.964844 5.238281-3.050781 4.554687-2.859375 10.550781.476563 14.90625 3.335937 4.351563 9.074218 6.097656 14.265624 4.339844 5.195313-1.761719 8.691407-6.636719 8.695313-12.121094-.179687-4.710937 3.496094-8.675781 8.207031-8.855469 4.714844-.179687 8.679688 3.496094 8.859375 8.207032v.648437c0 16.496094-13.371093 29.867187-29.867187 29.867187zm0 0"/><path d="m452.265625 153.601562c-4.710937 0-8.53125-3.820312-8.53125-8.535156v-25.597656c0-4.714844 3.820313-8.535156 8.53125-8.535156 4.714844 0 8.535156 3.820312 8.535156 8.535156v25.597656c0 4.714844-3.820312 8.535156-8.535156 8.535156zm0 0"/><path d="m204.800781 358.398438h-93.867187c-4.714844 0-8.535156-3.820313-8.535156-8.53125 0-4.714844 3.820312-8.535157 8.535156-8.535157h93.867187c4.710938 0 8.53125 3.820313 8.53125 8.535157 0 4.710937-3.820312 8.53125-8.53125 8.53125zm0 0"/><path d="m401.066406 358.398438h-93.867187c-4.710938 0-8.53125-3.820313-8.53125-8.53125 0-4.714844 3.820312-8.535157 8.53125-8.535157h93.867187c4.714844 0 8.535156 3.820313 8.535156 8.535157 0 4.710937-3.820312 8.53125-8.535156 8.53125zm0 0"/><path d="m341.332031 384c-3.582031.003906-6.785156-2.234375-8.019531-5.597656-1.230469-3.367188-.230469-7.144532 2.507812-9.453125l22.578126-19.082031-22.585938-19.082032c-2.328125-1.96875-3.429688-5.03125-2.890625-8.03125.542969-3.003906 2.644531-5.488281 5.511719-6.519531 2.871094-1.035156 6.074218-.457031 8.402344 1.511719l23.195312 19.628906c3.378906 3.15625 5.339844 7.542969 5.4375 12.164062.101562 4.621094-1.667969 9.085938-4.910156 12.386719l-23.722656 20.085938c-1.542969 1.292969-3.492188 1.996093-5.503907 1.988281zm0 0"/><path d="m145.066406 384c-3.578125 0-6.773437-2.234375-8.003906-5.589844-1.234375-3.359375-.242188-7.128906 2.484375-9.445312l22.46875-19.097656-22.46875-19.097657c-2.421875-1.945312-3.59375-5.050781-3.066406-8.109375.527343-3.058594 2.675781-5.585937 5.609375-6.605468 2.933594-1.019532 6.1875-.363282 8.496094 1.710937l23.042968 19.625c3.367188 3.160156 5.320313 7.542969 5.414063 12.160156.097656 4.617188-1.675781 9.078125-4.910157 12.375l-23.578124 20.070313c-1.539063 1.292968-3.480469 2.003906-5.488282 2.003906zm0 0"/><path d="m68.265625 264.535156c0 4.710938-3.820313 8.53125-8.53125 8.53125-4.714844 0-8.535156-3.820312-8.535156-8.53125 0-4.714844 3.820312-8.535156 8.535156-8.535156 4.710937 0 8.53125 3.820312 8.53125 8.535156zm0 0"/><path d="m68.265625 230.398438c0 4.714843-3.820313 8.535156-8.53125 8.535156-4.714844 0-8.535156-3.820313-8.535156-8.535156 0-4.710938 3.820312-8.53125 8.535156-8.53125 4.710937 0 8.53125 3.820312 8.53125 8.53125zm0 0"/><path d="m264.535156 264.535156c0 4.710938-3.824218 8.53125-8.535156 8.53125s-8.535156-3.820312-8.535156-8.53125c0-4.714844 3.824218-8.535156 8.535156-8.535156s8.535156 3.820312 8.535156 8.535156zm0 0"/><path d="m264.535156 230.398438c0 4.714843-3.824218 8.535156-8.535156 8.535156s-8.535156-3.820313-8.535156-8.535156c0-4.710938 3.824218-8.53125 8.535156-8.53125s8.535156 3.820312 8.535156 8.53125zm0 0"/><path d="m460.800781 264.535156c0 4.710938-3.820312 8.53125-8.535156 8.53125-4.710937 0-8.53125-3.820312-8.53125-8.53125 0-4.714844 3.820313-8.535156 8.53125-8.535156 4.714844 0 8.535156 3.820312 8.535156 8.535156zm0 0"/><path d="m460.800781 230.398438c0 4.714843-3.820312 8.535156-8.535156 8.535156-4.710937 0-8.53125-3.820313-8.53125-8.535156 0-4.710938 3.820313-8.53125 8.53125-8.53125 4.714844 0 8.535156 3.820312 8.535156 8.53125zm0 0"/><path d="m68.265625 196.265625c0 4.714844-3.820313 8.535156-8.53125 8.535156-4.714844 0-8.535156-3.820312-8.535156-8.535156 0-4.710937 3.820312-8.53125 8.535156-8.53125 4.710937 0 8.53125 3.820313 8.53125 8.53125zm0 0"/><path d="m264.535156 196.265625c0 4.714844-3.824218 8.535156-8.535156 8.535156s-8.535156-3.820312-8.535156-8.535156c0-4.710937 3.824218-8.53125 8.535156-8.53125s8.535156 3.820313 8.535156 8.53125zm0 0"/><path d="m460.800781 196.265625c0 4.714844-3.820312 8.535156-8.535156 8.535156-4.710937 0-8.53125-3.820312-8.53125-8.535156 0-4.710937 3.820313-8.53125 8.53125-8.53125 4.714844 0 8.535156 3.820313 8.535156 8.53125zm0 0"/></svg>