<svg height="512pt" viewBox="0 0 512 512" width="512pt" xmlns="http://www.w3.org/2000/svg"><path d="m281.601562 25.601562v409.597657h-273.066406v-408.488281c-.011718-4.824219 1.898438-9.457032 5.308594-12.867188s8.042969-5.320312 12.867188-5.308594h237.824218c9.414063.027344 17.035156 7.652344 17.066406 17.066406zm0 0" fill="#00838f"/><path d="m256 25.601562v409.597657h-247.464844v-408.488281c-.011718-4.824219 1.898438-9.457032 5.308594-12.867188s8.042969-5.320312 12.867188-5.308594h212.222656c9.414062.027344 17.039062 7.652344 17.066406 17.066406zm0 0" fill="#00bcd4"/><path d="m281.601562 233.726562v201.472657h-273.066406v-138.664063c45.054688-61.527344 127.230469-115.371094 273.066406-62.808594zm0 0" fill="#00838f"/><path d="m281.601562 435.199219v50.089843c.011719 4.824219-1.902343 9.457032-5.3125 12.867188-3.410156 3.410156-8.039062 5.320312-12.863281 5.308594h-236.714843c-4.824219.011718-9.457032-1.898438-12.867188-5.308594s-5.320312-8.042969-5.308594-12.867188v-50.089843zm0 0" fill="#37474f"/><path d="m256 435.199219v50.089843c.011719 4.824219-1.898438 9.457032-5.3125 12.867188-3.410156 3.410156-8.039062 5.320312-12.863281 5.308594h-211.113281c-4.824219.011718-9.457032-1.898438-12.867188-5.308594s-5.320312-8.042969-5.308594-12.867188v-50.089843zm0 0" fill="#607d8b"/><path d="m204.800781 238.933594h34.132813c4.710937 0 8.53125 3.820312 8.53125 8.53125v8.535156c0 14.136719-11.460938 25.601562-25.597656 25.601562h-153.601563c-14.136719 0-25.597656-11.464843-25.597656-25.601562v-8.535156c0-4.710938 3.820312-8.53125 8.53125-8.53125zm0 0" fill="#ff9801"/><path d="m136.535156 238.933594h-67.160156c-14.441406.300781-26.394531-11.15625-26.707031-25.601563.3125-14.441406 12.265625-25.898437 26.707031-25.597656h151.382812c14.441407-.300781 26.394532 11.15625 26.707032 25.597656-.3125 14.445313-12.265625 25.902344-26.707032 25.601563zm0 0" fill="#f44335"/><path d="m128 93.867188h34.132812c22.632813 0 44.335938 8.988281 60.339844 24.992187s24.992188 37.707031 24.992188 60.339844c0 4.714843-3.820313 8.535156-8.53125 8.535156h-187.734375c-4.710938 0-8.53125-3.820313-8.53125-8.535156 0-47.128907 38.203125-85.332031 85.332031-85.332031zm0 0" fill="#ff9801"/><g fill="#f3d55b"><path d="m128 128c0 4.710938-3.820312 8.535156-8.535156 8.535156-4.710938 0-8.53125-3.824218-8.53125-8.535156s3.820312-8.535156 8.53125-8.535156c4.714844 0 8.535156 3.824218 8.535156 8.535156zm0 0"/><path d="m179.199219 128c0 4.710938-3.820313 8.535156-8.53125 8.535156-4.714844 0-8.535157-3.824218-8.535157-8.535156s3.820313-8.535156 8.535157-8.535156c4.710937 0 8.53125 3.824218 8.53125 8.535156zm0 0"/><path d="m213.332031 153.601562c0 4.710938-3.820312 8.53125-8.53125 8.53125-4.714843 0-8.535156-3.820312-8.535156-8.53125 0-4.714843 3.820313-8.535156 8.535156-8.535156 4.710938 0 8.53125 3.820313 8.53125 8.535156zm0 0"/><path d="m93.867188 153.601562c0 4.710938-3.820313 8.53125-8.535157 8.53125-4.710937 0-8.53125-3.820312-8.53125-8.53125 0-4.714843 3.820313-8.535156 8.53125-8.535156 4.714844 0 8.535157 3.820313 8.535157 8.535156zm0 0"/></g><path d="m102.398438 358.398438h85.335937c9.425781 0 17.066406 7.640624 17.066406 17.066406 0 9.425781-7.640625 17.070312-17.066406 17.070312h-85.335937c-9.425782 0-17.066407-7.644531-17.066407-17.070312 0-9.425782 7.640625-17.066406 17.066407-17.066406zm0 0" fill="#ffeb3a"/><path d="m68.265625 8.535156h153.601563v17.066406c0 9.425782-7.640626 17.066407-17.066407 17.066407h-119.46875c-9.425781 0-17.066406-7.640625-17.066406-17.066407zm0 0" fill="#607d8b"/><path d="m136.535156 187.734375v51.199219c0 9.425781 7.640625 17.066406 17.066406 17.066406 9.425782 0 17.066407-7.640625 17.066407-17.066406v59.734375c0 9.425781 7.640625 17.066406 17.066406 17.066406s17.066406-7.640625 17.066406-17.066406v-110.933594zm0 0" fill="#ffeb3a"/><path d="m503.464844 375.464844c-.023438 70.683594-57.316406 127.976562-128 128-4.191406.035156-8.378906-.195313-12.542969-.679688-.167969 0-.339844.085938-.511719 0-65.230468-6.765625-114.796875-61.738281-114.796875-127.320312 0-65.578125 49.566407-120.550782 114.796875-127.316406.171875-.085938.34375 0 .511719 0 4.164063-.488282 8.351563-.714844 12.542969-.683594 70.683594.023437 127.976562 57.320312 128 128zm0 0" fill="#6a1b9a"/><path d="m477.867188 375.464844c-.054688 65.613281-49.679688 120.578125-114.945313 127.320312-.167969 0-.339844.085938-.511719 0-65.230468-6.765625-114.796875-61.738281-114.796875-127.320312 0-65.578125 49.566407-120.550782 114.796875-127.316406.171875-.085938.34375 0 .511719 0 65.265625 6.742187 114.890625 61.703124 114.945313 127.316406zm0 0" fill="#9d27b0"/><path d="m469.332031 375.464844c0 2.902344-.167969 5.71875-.425781 8.535156-4.132812 45.070312-39.835938 80.773438-84.90625 84.90625-2.816406.257812-5.632812.425781-8.535156.425781-2.898438 0-5.714844-.167969-8.53125-.425781-26.21875-2.34375-50.230469-15.632812-66.132813-36.609375-10.734375-13.976563-17.25-30.738281-18.773437-48.296875-.257813-2.816406-.425782-5.632812-.425782-8.535156 0-2.898438.167969-5.714844.425782-8.53125 4.128906-45.070313 39.835937-80.777344 84.90625-84.90625 2.816406-.257813 5.632812-.425782 8.53125-.425782 2.902344 0 5.71875.167969 8.535156.425782 45.070312 4.128906 80.773438 39.835937 84.90625 84.90625.171875 1.878906.339844 3.753906.339844 5.71875.085937.9375.085937 1.875.085937 2.8125zm0 0" fill="#00bcd4"/><path d="m469.332031 375.464844c0 2.902344-.167969 5.71875-.425781 8.535156-4.132812 45.070312-39.835938 80.773438-84.90625 84.90625-2.816406.257812-5.632812.425781-8.535156.425781-2.898438 0-5.714844-.167969-8.53125-.425781-26.21875-2.34375-50.230469-15.632812-66.132813-36.609375 26.027344-40.359375 79.785157-94.972656 168.445313-59.644531.085937.9375.085937 1.875.085937 2.8125zm0 0" fill="#00838f"/><path d="m401.066406 187.734375c0 14.136719-11.460937 25.597656-25.601562 25.597656-14.136719 0-25.597656-11.460937-25.597656-25.597656 0-14.140625 11.460937-25.601563 25.597656-25.601563 14.140625 0 25.601562 11.460938 25.601562 25.601563zm0 0" fill="#4527a0"/><path d="m375.464844 187.734375c0-12.253906-5.730469-22.1875-12.796875-22.1875-7.070313 0-12.800781 9.933594-12.800781 22.1875s5.730468 22.1875 12.800781 22.1875c7.066406 0 12.796875-9.933594 12.796875-22.1875zm0 0" fill="#673ab7"/><path d="m187.734375 324.265625c-14.140625 0-25.601563-11.460937-25.601563-25.597656v-68.269531c0-4.710938 3.820313-8.53125 8.535157-8.53125 4.710937 0 8.53125 3.820312 8.53125 8.53125v68.269531c0 4.710937 3.820312 8.53125 8.535156 8.53125 4.710937 0 8.53125-3.820313 8.53125-8.53125v-110.933594c0-4.714844 3.820313-8.535156 8.535156-8.535156 4.710938 0 8.53125 3.820312 8.53125 8.535156v110.933594c0 14.136719-11.460937 25.597656-25.597656 25.597656zm0 0"/><path d="m153.601562 264.535156c-14.140624 0-25.601562-11.464844-25.601562-25.601562v-51.199219c0-4.714844 3.820312-8.535156 8.535156-8.535156 4.710938 0 8.53125 3.820312 8.53125 8.535156v51.199219c0 4.710937 3.820313 8.53125 8.535156 8.53125 4.710938 0 8.53125-3.820313 8.53125-8.53125v-8.535156c0-4.710938 3.820313-8.53125 8.535157-8.53125 4.710937 0 8.53125 3.820312 8.53125 8.53125v8.535156c0 14.136718-11.460938 25.601562-25.597657 25.601562zm0 0"/><path d="m170.667969 290.132812h-102.402344c-18.851563 0-34.132813-15.28125-34.132813-34.132812v-8.535156c0-9.425782 7.640626-17.066406 17.066407-17.066406h85.335937c4.710938 0 8.53125 3.820312 8.53125 8.535156 0 4.710937-3.820312 8.53125-8.53125 8.53125h-85.335937v8.535156c0 9.425781 7.640625 17.066406 17.066406 17.066406h102.402344c4.710937 0 8.53125 3.820313 8.53125 8.535156 0 4.710938-3.820313 8.53125-8.53125 8.53125zm0 0"/><path d="m221.867188 290.132812h-17.066407c-4.714843 0-8.535156-3.820312-8.535156-8.53125 0-4.714843 3.820313-8.535156 8.535156-8.535156h17.066407c9.425781 0 17.066406-7.640625 17.066406-17.066406v-8.535156h-34.132813c-4.714843 0-8.535156-3.820313-8.535156-8.53125 0-4.714844 3.820313-8.535156 8.535156-8.535156h34.132813c9.425781 0 17.066406 7.640624 17.066406 17.066406v8.535156c0 18.851562-15.28125 34.132812-34.132812 34.132812zm0 0"/><path d="m220.75 247.464844h-8.902344c-4.710937 0-8.53125-3.820313-8.53125-8.53125 0-4.714844 3.820313-8.535156 8.53125-8.535156h8.902344c9.425781 0 17.066406-7.640626 17.066406-17.066407s-7.640625-17.066406-17.066406-17.066406h-151.367188c-9.425781 0-17.066406 7.640625-17.066406 17.066406s7.640625 17.066407 17.066406 17.066407h67.152344c4.710938 0 8.53125 3.820312 8.53125 8.535156 0 4.710937-3.820312 8.53125-8.53125 8.53125h-67.152344c-18.847656 0-34.132812-15.28125-34.132812-34.132813 0-18.851562 15.285156-34.132812 34.132812-34.132812h151.367188c18.851562 0 34.132812 15.28125 34.132812 34.132812 0 18.851563-15.28125 34.132813-34.132812 34.132813zm0 0"/><path d="m238.933594 196.265625h-187.734375c-9.425781 0-17.066407-7.640625-17.066407-17.066406.0625-51.816407 42.050782-93.804688 93.867188-93.867188h34.132812c51.816407.0625 93.804688 42.050781 93.867188 93.867188 0 9.425781-7.640625 17.066406-17.066406 17.066406zm-110.933594-93.867187c-42.394531.046874-76.753906 34.40625-76.800781 76.800781h187.734375c-.046875-42.394531-34.402344-76.753907-76.800782-76.800781zm0 0"/><path d="m128 128c0 4.710938-3.820312 8.535156-8.535156 8.535156-4.710938 0-8.53125-3.824218-8.53125-8.535156s3.820312-8.535156 8.53125-8.535156c4.714844 0 8.535156 3.824218 8.535156 8.535156zm0 0"/><path d="m179.199219 128c0 4.710938-3.820313 8.535156-8.53125 8.535156-4.714844 0-8.535157-3.824218-8.535157-8.535156s3.820313-8.535156 8.535157-8.535156c4.710937 0 8.53125 3.824218 8.53125 8.535156zm0 0"/><path d="m213.332031 153.601562c0 4.710938-3.820312 8.53125-8.53125 8.53125-4.714843 0-8.535156-3.820312-8.535156-8.53125 0-4.714843 3.820313-8.535156 8.535156-8.535156 4.710938 0 8.53125 3.820313 8.53125 8.535156zm0 0"/><path d="m93.867188 153.601562c0 4.710938-3.820313 8.53125-8.535157 8.53125-4.710937 0-8.53125-3.820312-8.53125-8.53125 0-4.714843 3.820313-8.535156 8.53125-8.535156 4.714844 0 8.535157 3.820313 8.535157 8.535156zm0 0"/><path d="m375.464844 512c-75.402344 0-136.53125-61.128906-136.53125-136.535156 0-75.402344 61.128906-136.53125 136.53125-136.53125 75.40625 0 136.535156 61.128906 136.535156 136.53125-.089844 75.371094-61.164062 136.445312-136.535156 136.535156zm0-256c-65.976563 0-119.464844 53.488281-119.464844 119.464844 0 65.980468 53.488281 119.46875 119.464844 119.46875 65.980468 0 119.46875-53.488282 119.46875-119.46875-.070313-65.949219-53.515625-119.394532-119.46875-119.464844zm0 0"/><path d="m375.464844 477.867188c-41.414063 0-78.753906-24.949219-94.601563-63.214844-15.851562-38.261719-7.089843-82.308594 22.195313-111.59375s73.332031-38.046875 111.59375-22.195313c38.265625 15.847657 63.214844 53.1875 63.214844 94.601563-.0625 56.53125-45.871094 102.339844-102.402344 102.402344zm0-187.734376c-47.125 0-85.332032 38.207032-85.332032 85.332032 0 47.128906 38.207032 85.335937 85.332032 85.335937 47.128906 0 85.335937-38.207031 85.335937-85.335937-.050781-47.105469-38.226562-85.28125-85.335937-85.332032zm0 0"/><path d="m375.464844 221.867188c-18.847656 0-34.132813-15.28125-34.132813-34.132813s15.285157-34.132813 34.132813-34.132813c18.851562 0 34.136718 15.28125 34.136718 34.132813s-15.285156 34.132813-34.136718 34.132813zm0-51.199219c-9.425782 0-17.066406 7.640625-17.066406 17.066406s7.640624 17.066406 17.066406 17.066406c9.425781 0 17.070312-7.640625 17.070312-17.066406s-7.644531-17.066406-17.070312-17.066406zm0 0"/><path d="m409.601562 256h-17.066406v-17.066406c0-9.425782-7.644531-17.066406-17.070312-17.066406-9.425782 0-17.066406 7.640624-17.066406 17.066406v17.066406h-17.066407v-17.066406c0-18.851563 15.285157-34.132813 34.132813-34.132813 18.851562 0 34.136718 15.28125 34.136718 34.132813zm0 0"/><path d="m263.425781 512h-236.714843c-14.746094-.015625-26.695313-11.964844-26.710938-26.710938v-458.578124c.015625-14.746094 11.964844-26.695313 26.710938-26.710938h237.824218c14.136719 0 25.597656 11.460938 25.597656 25.601562v262.996094c0 4.710938-3.820312 8.53125-8.53125 8.53125-4.714843 0-8.535156-3.820312-8.535156-8.53125v-262.996094c0-4.714843-3.820312-8.535156-8.53125-8.535156h-237.824218c-5.324219.003906-9.640626 4.320313-9.644532 9.644532v458.578124c.003906 5.324219 4.320313 9.640626 9.644532 9.644532h236.714843c5.320313-.003906 9.636719-4.320313 9.640625-9.644532v-22.953124c0-4.710938 3.820313-8.535157 8.535156-8.535157 4.710938 0 8.53125 3.824219 8.53125 8.535157v22.953124c-.011718 14.746094-11.964843 26.695313-26.707031 26.710938zm0 0"/><path d="m187.734375 401.066406h-85.335937c-14.136719 0-25.597657-11.460937-25.597657-25.601562 0-14.136719 11.460938-25.597656 25.597657-25.597656h85.335937c14.136719 0 25.597656 11.460937 25.597656 25.597656 0 14.140625-11.460937 25.601562-25.597656 25.601562zm-85.335937-34.132812c-4.710938 0-8.53125 3.820312-8.53125 8.53125 0 4.714844 3.820312 8.535156 8.53125 8.535156h85.335937c4.710937 0 8.53125-3.820312 8.53125-8.535156 0-4.710938-3.820313-8.53125-8.53125-8.53125zm0 0"/><path d="m187.734375 477.867188h-85.335937c-4.710938 0-8.53125-3.820313-8.53125-8.535157 0-4.710937 3.820312-8.53125 8.53125-8.53125h85.335937c4.710937 0 8.53125 3.820313 8.53125 8.53125 0 4.714844-3.820313 8.535157-8.53125 8.535157zm0 0"/><path d="m204.800781 51.199219h-119.46875c-14.136719 0-25.597656-11.460938-25.597656-25.597657v-17.066406c0-4.714844 3.820313-8.535156 8.53125-8.535156h153.601563c4.710937 0 8.53125 3.820312 8.53125 8.535156v17.066406c0 14.136719-11.460938 25.597657-25.597657 25.597657zm-128-34.132813v8.535156c0 4.710938 3.820313 8.53125 8.53125 8.53125h119.46875c4.710938 0 8.53125-3.820312 8.53125-8.53125v-8.535156zm0 0"/><path d="m375.464844 307.199219c-4.710938 0-8.53125-3.820313-8.53125-8.53125v-17.066407c0-4.714843 3.820312-8.535156 8.53125-8.535156 4.714844 0 8.535156 3.820313 8.535156 8.535156v17.066407c0 4.710937-3.820312 8.53125-8.535156 8.53125zm0 0"/><path d="m375.464844 477.867188c-4.710938 0-8.53125-3.820313-8.53125-8.535157v-17.066406c0-4.710937 3.820312-8.53125 8.53125-8.53125 4.714844 0 8.535156 3.820313 8.535156 8.53125v17.066406c0 4.714844-3.820312 8.535157-8.535156 8.535157zm0 0"/><path d="m298.667969 384h-17.066407c-4.714843 0-8.535156-3.820312-8.535156-8.535156 0-4.710938 3.820313-8.53125 8.535156-8.53125h17.066407c4.710937 0 8.53125 3.820312 8.53125 8.53125 0 4.714844-3.820313 8.535156-8.53125 8.535156zm0 0"/><path d="m469.332031 384h-17.066406c-4.710937 0-8.53125-3.820312-8.53125-8.535156 0-4.710938 3.820313-8.53125 8.53125-8.53125h17.066406c4.714844 0 8.535157 3.820312 8.535157 8.53125 0 4.714844-3.820313 8.535156-8.535157 8.535156zm0 0"/><path d="m418.132812 426.667969c-2.261718 0-4.433593-.902344-6.03125-2.5l-42.667968-42.667969c-1.601563-1.601562-2.5-3.769531-2.5-6.035156v-42.664063c0-4.714843 3.820312-8.535156 8.53125-8.535156 4.714844 0 8.535156 3.820313 8.535156 8.535156v39.132813l40.167969 40.167968c2.4375 2.4375 3.167969 6.109376 1.847656 9.296876s-4.429687 5.265624-7.882813 5.269531zm0 0"/><path d="m8.535156 426.667969h256v17.066406h-256zm0 0"/></svg>