<svg height="512pt" viewBox="0 0 512 512" width="512pt" xmlns="http://www.w3.org/2000/svg"><path d="m256 8.535156h34.132812c9.425782 0 17.066407 7.640625 17.066407 17.066406v17.066407h-68.265625v-17.066407c0-9.425781 7.640625-17.066406 17.066406-17.066406zm0 0" fill="#f44335"/><path d="m204.800781 145.066406h136.53125v34.132813h-136.53125zm0 0" fill="#f44335"/><path d="m341.332031 132.265625v12.800781h-136.53125v-12.800781c-.019531-5.664063 2.222657-11.097656 6.226563-15.105469 4.003906-4.003906 9.441406-6.246094 15.105468-6.226562 5.660157 0 11.085938-2.246094 15.085938-6.25 4-4 6.246094-9.425782 6.246094-15.082032v-46.933593h51.203125v46.933593c-.019531 5.660157 2.222656 11.097657 6.226562 15.101563 4.003907 4.007813 9.441407 6.25 15.105469 6.230469 11.78125 0 21.332031 9.550781 21.332031 21.332031zm0 0" fill="#cfd8dc"/><path d="m204.800781 17.066406v162.132813h-162.132812v-153.597657c20.765625-3.335937 41.96875-2.816406 62.546875 1.535157 19.457031 4.777343 37.890625 14.675781 58.453125 13.054687 16.128906-1.195312 33.539062-7.933594 41.132812-23.125zm0 0" fill="#fec108"/><path d="m85.332031 110.933594h76.800781c4.714844 0 8.535157 3.820312 8.535157 8.53125v59.734375h-93.867188v-59.734375c0-4.710938 3.820313-8.53125 8.53125-8.53125zm0 0" fill="#f57c00"/><path d="m460.203125 167.765625c-.339844 3.839844-.683594 7.679687-1.023437 11.433594l-25.601563-.085938-92.246094-.253906c6.144531-34.902344 17.152344-71.082031 39.9375-98.988281 7.953125-10.578125 18.152344-19.265625 29.867188-25.429688 9.203125-4.742187 20.28125-3.984375 28.757812 1.964844 8.851563 7.753906 14.433594 18.582031 15.613281 30.292969 5.441407 26.65625 7.019532 53.957031 4.695313 81.066406zm0 0" fill="#4e342e"/><path d="m434.601562 167.765625c-.339843 3.839844-.679687 7.59375-1.023437 11.347656l-92.246094-.253906c6.144531-34.902344 17.152344-71.082031 39.9375-98.988281 7.953125-10.578125 18.152344-19.265625 29.867188-25.429688 1.089843.59375 2.144531 1.25 3.15625 1.964844 8.851562 7.753906 14.433593 18.582031 15.617187 30.292969 5.4375 26.65625 7.019532 53.957031 4.691406 81.066406zm0 0" fill="#795548"/><path d="m477.867188 230.398438-38.65625 201.046874c-.902344 5.023438-3.382813 9.625-7.082032 13.140626l-81.410156 7.679687h-189.4375l-81.410156-7.679687c-3.699219-3.515626-6.179688-8.117188-7.082032-13.140626l-38.65625-201.046874zm0 0" fill="#00838f"/><path d="m452.265625 230.398438-38.65625 201.046874c-.898437 5.023438-3.382813 9.625-7.082031 13.140626l-81.40625 7.679687h-163.839844l-81.410156-7.679687c-3.699219-3.515626-6.179688-8.117188-7.082032-13.140626l-38.65625-201.046874zm0 0" fill="#00bcd4"/><path d="m25.601562 179.199219h460.796876c9.425781 0 17.066406 7.640625 17.066406 17.066406v17.066406c0 9.425781-7.640625 17.066407-17.066406 17.066407h-460.796876c-9.425781 0-17.066406-7.640626-17.066406-17.066407v-17.066406c0-9.425781 7.640625-17.066406 17.066406-17.066406zm0 0" fill="#283593"/><g fill="#3f51b5"><path d="m25.601562 179.199219h435.199219c9.425781 0 17.066407 7.640625 17.066407 17.066406v17.066406c0 9.425781-7.640626 17.066407-17.066407 17.066407h-435.199219c-9.425781 0-17.066406-7.640626-17.066406-17.066407v-17.066406c0-9.425781 7.640625-17.066406 17.066406-17.066406zm0 0"/><path d="m97.910156 264.535156h23.816406c8.496094-.003906 15.695313 6.242188 16.898438 14.648438l12.191406 85.335937c.703125 4.898438-.757812 9.859375-4 13.597657-3.242187 3.734374-7.945312 5.882812-12.894531 5.882812h-17.722656c-8.050781 0-15.003907-5.621094-16.691407-13.492188l-18.289062-85.332031c-1.078125-5.039062.175781-10.296875 3.417969-14.308593 3.242187-4.007813 8.121093-6.335938 13.273437-6.332032zm0 0"/><path d="m190.34375 264.535156h31.523438c9.425781 0 17.066406 7.640625 17.066406 17.066406v85.332032c0 9.425781-7.640625 17.066406-17.066406 17.066406h-19.328126c-8.492187 0-15.695312-6.242188-16.894531-14.652344l-12.195312-85.332031c-.699219-4.898437.757812-9.859375 4-13.597656 3.242187-3.738281 7.949219-5.886719 12.894531-5.882813zm0 0"/><path d="m414.089844 264.535156h-23.816406c-8.496094-.003906-15.695313 6.242188-16.898438 14.648438l-12.191406 85.335937c-.703125 4.898438.757812 9.859375 4 13.597657 3.242187 3.734374 7.945312 5.882812 12.894531 5.882812h17.722656c8.050781 0 15.003907-5.621094 16.691407-13.492188l18.289062-85.332031c1.078125-5.039062-.175781-10.296875-3.417969-14.308593-3.242187-4.007813-8.121093-6.335938-13.273437-6.332032zm0 0"/><path d="m321.65625 264.535156h-31.523438c-9.425781 0-17.066406 7.640625-17.066406 17.066406v85.332032c0 9.425781 7.640625 17.066406 17.066406 17.066406h19.328126c8.492187 0 15.695312-6.242188 16.894531-14.652344l12.195312-85.332031c.699219-4.898437-.757812-9.859375-4-13.597656-3.242187-3.738281-7.949219-5.886719-12.894531-5.882813zm0 0"/></g><path d="m119.464844 511.871094c-28.273438 0-51.199219-22.921875-51.199219-51.199219s22.925781-51.199219 51.199219-51.199219c28.277344 0 51.203125 22.921875 51.203125 51.199219-.035157 28.261719-22.9375 51.167969-51.203125 51.199219zm0 0" fill="#2c3e50"/><path d="m119.464844 503.210938c-23.492188 0-42.535156-19.046876-42.535156-42.539063s19.042968-42.539063 42.535156-42.539063c23.496094 0 42.539062 19.046876 42.539062 42.539063-.023437 23.484375-19.054687 42.515625-42.539062 42.539063zm0 0" fill="#607d8b"/><path d="m119.464844 477.609375c-9.351563 0-16.9375-7.582031-16.9375-16.9375s7.585937-16.9375 16.9375-16.9375c9.355468 0 16.941406 7.582031 16.941406 16.9375-.011719 9.351563-7.589844 16.929687-16.941406 16.9375zm0 0" fill="#cfd8dc"/><path d="m392.535156 511.871094c-28.277344 0-51.203125-22.921875-51.203125-51.199219s22.925781-51.199219 51.203125-51.199219c28.273438 0 51.199219 22.921875 51.199219 51.199219-.035156 28.261719-22.9375 51.167969-51.199219 51.199219zm0 0" fill="#2c3e50"/><path d="m392.703125 418.132812c-17.210937-.015624-32.738281 10.339844-39.335937 26.242188-6.59375 15.898438-2.957032 34.203125 9.214843 46.375s30.476563 15.808594 46.378907 9.214844c15.898437-6.59375 26.257812-22.121094 26.238281-39.335938.058593-11.289062-4.398438-22.132812-12.378907-30.113281-7.984374-7.984375-18.828124-12.441406-30.117187-12.382813zm0 0" fill="#37474f"/><path d="m379.902344 420.097656c-17.722656 5.566406-29.785156 21.996094-29.785156 40.574219s12.0625 35.007813 29.785156 40.574219c17.679687-5.613282 29.6875-22.027344 29.6875-40.574219s-12.007813-34.960937-29.6875-40.574219zm0 0" fill="#607d8b"/><path d="m392.660156 477.867188c-9.355468 0-16.9375-7.585938-16.9375-16.9375 0-9.355469 7.582032-16.941407 16.9375-16.941407 9.355469 0 16.941406 7.585938 16.941406 16.941407-.011718 9.347656-7.589843 16.925781-16.941406 16.9375zm0 0" fill="#cfd8dc"/><path d="m350.71875 460.800781h-189.4375c-4.714844 0-8.535156-3.820312-8.535156-8.535156 0-4.710937 3.820312-8.53125 8.535156-8.53125h189.4375c4.714844 0 8.535156 3.820313 8.535156 8.53125 0 4.714844-3.820312 8.535156-8.535156 8.535156zm0 0"/><path d="m432.128906 453.164062c-3.472656 0-6.597656-2.097656-7.910156-5.308593-1.308594-3.214844-.546875-6.902344 1.9375-9.328125 2.414062-2.316406 4.042969-5.332032 4.648438-8.625l36.726562-190.96875h-423.0625l36.691406 190.863281c.59375 3.332031 2.230469 6.386719 4.667969 8.730469 2.179687 2.132812 3.054687 5.269531 2.296875 8.222656-.757812 2.957031-3.035156 5.28125-5.972656 6.101562-2.9375.820313-6.089844.011719-8.269532-2.121093-4.957031-4.796875-8.285156-11.027344-9.515624-17.816407l-38.613282-200.902343c-.480468-2.5.179688-5.082031 1.800782-7.046875 1.621093-1.960938 4.03125-3.097656 6.578124-3.097656h443.734376c2.546874 0 4.957031 1.136718 6.578124 3.097656 1.621094 1.964844 2.28125 4.546875 1.800782 7.046875l-38.65625 201.011719c-1.242188 6.75-4.5625 12.9375-9.496094 17.707031-1.59375 1.558593-3.734375 2.433593-5.964844 2.433593zm0 0"/><path d="m486.398438 238.933594h-460.796876c-14.140624 0-25.601562-11.460938-25.601562-25.601563v-17.066406c0-14.136719 11.460938-25.597656 25.601562-25.597656h460.796876c14.140624 0 25.601562 11.460937 25.601562 25.597656v17.066406c0 14.140625-11.460938 25.601563-25.601562 25.601563zm-460.796876-51.199219c-4.714843 0-8.535156 3.820313-8.535156 8.53125v17.066406c0 4.714844 3.820313 8.535157 8.535156 8.535157h460.796876c4.714843 0 8.535156-3.820313 8.535156-8.535157v-17.066406c0-4.710937-3.820313-8.53125-8.535156-8.53125zm0 0"/><path d="m119.464844 511.871094c-28.273438 0-51.199219-22.921875-51.199219-51.199219s22.925781-51.199219 51.199219-51.199219c28.277344 0 51.203125 22.921875 51.203125 51.199219-.035157 28.261719-22.9375 51.167969-51.203125 51.199219zm0-85.332032c-18.847656 0-34.132813 15.28125-34.132813 34.132813s15.285157 34.132813 34.132813 34.132813c18.851562 0 34.136718-15.28125 34.136718-34.132813s-15.285156-34.132813-34.136718-34.132813zm0 0"/><path d="m392.535156 511.871094c-28.277344 0-51.203125-22.921875-51.203125-51.199219s22.925781-51.199219 51.203125-51.199219c28.273438 0 51.199219 22.921875 51.199219 51.199219-.035156 28.261719-22.9375 51.167969-51.199219 51.199219zm0-85.332032c-18.851562 0-34.136718 15.28125-34.136718 34.132813s15.285156 34.132813 34.136718 34.132813c18.847656 0 34.132813-15.28125 34.132813-34.132813s-15.285157-34.132813-34.132813-34.132813zm0 0"/><path d="m119.464844 511.871094h-68.265625c-4.710938 0-8.53125-3.820313-8.53125-8.53125 0-4.714844 3.820312-8.535156 8.53125-8.535156h68.265625c4.714844 0 8.535156 3.820312 8.535156 8.535156 0 4.710937-3.820312 8.53125-8.535156 8.53125zm0 0"/><path d="m17.066406 512h-8.53125c-4.714844 0-8.535156-3.820312-8.535156-8.535156 0-4.710938 3.820312-8.53125 8.535156-8.53125h8.53125c4.714844 0 8.535156 3.820312 8.535156 8.53125 0 4.714844-3.820312 8.535156-8.535156 8.535156zm0 0"/><path d="m392.535156 511.871094h-68.269531c-4.710937 0-8.53125-3.820313-8.53125-8.53125 0-4.714844 3.820313-8.535156 8.53125-8.535156h68.269531c4.710938 0 8.53125 3.820312 8.53125 8.535156 0 4.710937-3.820312 8.53125-8.53125 8.53125zm0 0"/><path d="m290.132812 512h-8.53125c-4.714843 0-8.535156-3.820312-8.535156-8.535156 0-4.710938 3.820313-8.53125 8.535156-8.53125h8.53125c4.714844 0 8.535157 3.820312 8.535157 8.53125 0 4.714844-3.820313 8.535156-8.535157 8.535156zm0 0"/><path d="m133.921875 392.535156h-17.722656c-12.054688-.050781-22.457031-8.464844-25.027344-20.242187l-18.289063-85.335938c-1.617187-7.554687.265626-15.441406 5.125-21.453125 4.859376-6.007812 12.175782-9.503906 19.902344-9.503906h23.828125c12.71875.054688 23.484375 9.398438 25.332031 21.980469l12.195313 85.335937c1.050781 7.34375-1.140625 14.785156-6.003906 20.390625s-11.917969 8.828125-19.339844 8.828125zm-36.011719-119.46875c-2.574218 0-5.011718 1.164063-6.632812 3.167969-1.621094 2-2.25 4.628906-1.710938 7.148437l18.285156 85.335938c.84375 3.933594 4.320313 6.75 8.347657 6.746094h17.722656c2.476563.003906 4.828125-1.070313 6.449219-2.941406 1.621094-1.871094 2.351562-4.351563 2-6.800782l-12.195313-85.335937c-.601562-4.199219-4.199219-7.316407-8.4375-7.320313zm0 0"/><path d="m221.867188 392.535156h-19.335938c-12.71875-.058594-23.488281-9.398437-25.335938-21.984375l-12.195312-85.332031c-1.046875-7.347656 1.140625-14.789062 6.003906-20.394531 4.863282-5.605469 11.917969-8.824219 19.339844-8.824219h31.523438c14.136718 0 25.597656 11.460938 25.597656 25.601562v85.332032c0 14.136718-11.460938 25.601562-25.597656 25.601562zm-31.523438-119.46875c-2.472656 0-4.828125 1.074219-6.449219 2.945313-1.621093 1.867187-2.347656 4.351562-1.996093 6.800781l12.191406 85.332031c.597656 4.203125 4.195312 7.328125 8.441406 7.332031h19.335938c4.710937 0 8.53125-3.820312 8.53125-8.535156v-85.339844c0-4.714843-3.820313-8.535156-8.53125-8.535156zm0 0"/><path d="m395.800781 392.535156h-17.722656c-7.421875 0-14.476563-3.222656-19.339844-8.828125s-7.054687-13.046875-6.003906-20.390625l12.195313-85.335937c1.847656-12.582031 12.613281-21.925781 25.332031-21.980469h23.828125c7.726562 0 15.042968 3.496094 19.902344 9.503906 4.859374 6.011719 6.742187 13.898438 5.125 21.453125l-18.289063 85.335938c-2.570313 11.777343-12.972656 20.191406-25.027344 20.242187zm-5.539062-119.46875c-4.238281.003906-7.835938 3.121094-8.4375 7.320313l-12.195313 85.335937c-.351562 2.449219.378906 4.929688 2 6.800782 1.621094 1.871093 3.972656 2.945312 6.449219 2.941406h17.722656c4.023438.003906 7.5-2.804688 8.347657-6.738282l18.285156-85.335937c.542968-2.519531-.085938-5.148437-1.707032-7.15625-1.621093-2.003906-4.058593-3.167969-6.636718-3.167969zm0 0"/><path d="m309.46875 392.535156h-19.335938c-14.136718 0-25.597656-11.464844-25.597656-25.601562v-85.332032c0-14.140624 11.460938-25.601562 25.597656-25.601562h31.523438c7.421875 0 14.476562 3.21875 19.339844 8.824219 4.863281 5.605469 7.050781 13.046875 6.003906 20.394531l-12.195312 85.332031c-1.847657 12.585938-12.617188 21.925781-25.335938 21.984375zm-19.335938-119.46875c-4.710937 0-8.53125 3.820313-8.53125 8.535156v85.332032c0 4.710937 3.820313 8.53125 8.53125 8.53125h19.335938c4.242188 0 7.839844-3.121094 8.441406-7.320313l12.191406-85.332031c.351563-2.449219-.375-4.933594-1.996093-6.800781-1.621094-1.871094-3.976563-2.945313-6.449219-2.945313zm0 0"/><path d="m196.265625 426.667969h-17.066406c-4.710938 0-8.53125-3.820313-8.53125-8.535157 0-4.710937 3.820312-8.53125 8.53125-8.53125h17.066406c4.714844 0 8.535156 3.820313 8.535156 8.53125 0 4.714844-3.820312 8.535157-8.535156 8.535157zm0 0"/><path d="m332.800781 426.667969h-102.402343c-4.710938 0-8.53125-3.820313-8.53125-8.535157 0-4.710937 3.820312-8.53125 8.53125-8.53125h102.402343c4.710938 0 8.53125 3.820313 8.53125 8.53125 0 4.714844-3.820312 8.535157-8.53125 8.535157zm0 0"/><path d="m307.199219 51.199219h-68.265625c-4.714844 0-8.535156-3.820313-8.535156-8.53125v-17.066407c0-14.140624 11.464843-25.601562 25.601562-25.601562h34.132812c14.140626 0 25.601563 11.460938 25.601563 25.601562v17.066407c0 4.710937-3.820313 8.53125-8.535156 8.53125zm-59.734375-17.066407h51.203125v-8.53125c0-4.714843-3.820313-8.535156-8.535157-8.535156h-34.132812c-4.710938 0-8.535156 3.820313-8.535156 8.535156zm0 0"/><path d="m204.800781 187.734375c-4.714843 0-8.535156-3.820313-8.535156-8.535156v-46.933594c0-16.492187 13.371094-29.867187 29.867187-29.867187 7.070313 0 12.800782-5.730469 12.800782-12.796876v-46.933593c0-4.714844 3.820312-8.535157 8.53125-8.535157 4.714844 0 8.535156 3.820313 8.535156 8.535157v46.933593c0 16.492188-13.371094 29.863282-29.867188 29.863282-7.070312 0-12.800781 5.734375-12.800781 12.800781v46.933594c0 4.714843-3.820312 8.535156-8.53125 8.535156zm0 0"/><path d="m341.332031 187.734375c-4.710937 0-8.53125-3.820313-8.53125-8.535156v-46.933594c0-7.066406-5.730469-12.800781-12.800781-12.800781-16.496094 0-29.867188-13.371094-29.867188-29.863282v-46.933593c0-4.714844 3.820313-8.535157 8.535157-8.535157 4.710937 0 8.53125 3.820313 8.53125 8.535157v46.933593c0 7.066407 5.730469 12.796876 12.800781 12.796876 16.496094 0 29.867188 13.375 29.867188 29.867187v46.933594c0 4.714843-3.820313 8.535156-8.535157 8.535156zm0 0"/><path d="m341.332031 153.601562h-136.53125c-4.714843 0-8.535156-3.820312-8.535156-8.535156 0-4.710937 3.820313-8.53125 8.535156-8.53125h136.53125c4.714844 0 8.535157 3.820313 8.535157 8.53125 0 4.714844-3.820313 8.535156-8.535157 8.535156zm0 0"/><path d="m204.800781 187.734375h-162.132812c-4.714844 0-8.535157-3.820313-8.535157-8.535156v-153.597657c0-4.714843 3.820313-8.535156 8.535157-8.535156 4.710937 0 8.53125 3.820313 8.53125 8.535156v145.066407h145.066406v-153.601563c0-4.710937 3.820313-8.53125 8.535156-8.53125 4.710938 0 8.53125 3.820313 8.53125 8.53125v162.132813c0 4.714843-3.820312 8.535156-8.53125 8.535156zm0 0"/><path d="m159.148438 48.9375c-13.335938-.628906-26.472657-3.445312-38.898438-8.328125-5.878906-1.953125-11.425781-3.804687-17.066406-5.203125-19.542969-4.183594-39.703125-4.632812-59.417969-1.324219-2.25.320313-4.53125-.285156-6.332031-1.671875-1.796875-1.386718-2.960938-3.445312-3.222656-5.699218-.601563-4.675782 2.699218-8.949219 7.371093-9.550782 21.824219-3.433594 44.089844-2.855468 65.707031 1.707032 6.308594 1.5625 12.433594 3.601562 18.371094 5.582031 11.847656 4.898437 24.558594 7.378906 37.378906 7.292969 6.082032-.46875 26.503907-3.199219 34.132813-18.464844 2.105469-4.21875 7.234375-5.929688 11.449219-3.824219 4.21875 2.109375 5.929687 7.234375 3.824218 11.453125-7.976562 15.941406-25.496093 26.09375-48.078124 27.851562-1.757813.121094-3.496094.179688-5.21875.179688zm0 0"/><path d="m68.265625 85.332031h-25.597656c-4.714844 0-8.535157-3.820312-8.535157-8.53125 0-4.714843 3.820313-8.535156 8.535157-8.535156h25.597656c4.714844 0 8.535156 3.820313 8.535156 8.535156 0 4.710938-3.820312 8.53125-8.535156 8.53125zm0 0"/><path d="m170.667969 85.332031h-68.269531c-4.710938 0-8.53125-3.820312-8.53125-8.53125 0-4.714843 3.820312-8.535156 8.53125-8.535156h68.269531c4.710937 0 8.53125 3.820313 8.53125 8.535156 0 4.710938-3.820313 8.53125-8.53125 8.53125zm0 0"/><path d="m170.667969 187.734375h-93.867188c-4.714843 0-8.535156-3.820313-8.535156-8.535156v-59.734375c0-9.425782 7.640625-17.066406 17.066406-17.066406h76.800781c9.425782 0 17.066407 7.640624 17.066407 17.066406v59.734375c0 4.714843-3.820313 8.535156-8.53125 8.535156zm-85.335938-17.066406h76.800781v-51.203125h-76.800781zm0 0"/><path d="m459.152344 187.734375c-.296875 0-.597656 0-.902344 0-2.253906-.238281-4.316406-1.363281-5.738281-3.125-1.421875-1.757813-2.089844-4.011719-1.847657-6.261719.375-3.722656.714844-7.460937.988282-11.195312 2.304687-26.285156.792968-52.761719-4.488282-78.609375-.832031-9.601563-5.179687-18.558594-12.203124-25.15625-16.273438-11.394531-36.515626 8.796875-47.105469 21.835937-18.371094 22.605469-30.835938 53.757813-38.117188 95.144532-.816406 4.644531-5.238281 7.746093-9.882812 6.929687-4.640625-.8125-7.742188-5.238281-6.925781-9.878906 7.789062-44.375 21.425781-78.039063 41.675781-102.957031 33.414062-41.113282 58.273437-33.347657 70.136719-25.0625 10.628906 8.992187 17.457031 21.679687 19.105468 35.507812 5.625 27.445312 7.25 55.554688 4.820313 83.464844-.273438 3.914062-.621094 7.828125-1.042969 11.742187-.464844 4.332031-4.117188 7.613281-8.472656 7.621094zm0 0"/><path d="m399.675781 187.734375c-.699219 0-1.394531-.082031-2.074219-.25-2.195312-.546875-4.085937-1.945313-5.25-3.886719-1.164062-1.941406-1.511718-4.265625-.960937-6.460937l17.066406-68.269531c.695313-3.003907 2.957031-5.398438 5.917969-6.261719 2.960938-.867188 6.15625-.066407 8.359375 2.089843 2.207031 2.15625 3.074219 5.332032 2.277344 8.3125l-17.066407 68.265626c-.949218 3.792968-4.359374 6.457031-8.269531 6.460937zm0 0"/><path d="m425.277344 153.601562c-.699219 0-1.398438-.082031-2.074219-.25l-34.132813-8.53125c-4.574218-1.140624-7.359374-5.773437-6.21875-10.347656 1.140626-4.574218 5.773438-7.355468 10.347657-6.214844l34.132812 8.53125c4.175781 1.046876 6.917969 5.039063 6.394531 9.3125-.519531 4.273438-4.144531 7.488282-8.449218 7.5zm0 0"/></svg>