<svg height="512pt" viewBox="0 0 512.03826 512" width="512pt" xmlns="http://www.w3.org/2000/svg"><path d="m452.265625 281.617188v136.535156h-426.664063c-9.414062-.027344-17.039062-7.652344-17.066406-17.066406v-119.46875c.027344-9.410157 7.652344-17.035157 17.066406-17.066407h409.597657c9.414062.03125 17.039062 7.65625 17.066406 17.066407zm0 0" fill="#00838f"/><path d="m426.667969 281.617188v136.535156h-401.066407c-9.414062-.027344-17.039062-7.652344-17.066406-17.066406v-119.46875c.027344-9.410157 7.652344-17.035157 17.066406-17.066407h384c9.414063.03125 17.035157 7.65625 17.066407 17.066407zm0 0" fill="#00bcd4"/><path d="m490.496094 444.09375-24.832032 18.6875-5.886718 31.488281c-.945313 4.652344-4.648438 8.25-9.328125 9.0625-4.679688.8125-9.378907-1.328125-11.835938-5.394531l-5.71875-9.214844-38.484375-61.609375c-2.328125-3.863281-2.183594-8.730469.375-12.441406 2.554688-3.714844 7.046875-5.59375 11.488282-4.796875l61.4375 10.667969 18.007812 3.070312c4.476562.839844 8.039062 4.242188 9.074219 8.679688 1.035156 4.4375-.652344 9.066406-4.296875 11.800781zm0 0" fill="#607d8b"/><path d="m464.726562 435.558594-24.917968 18.605468-5.886719 31.574219c-.238281 1.027344-.582031 2.027344-1.027344 2.984375l-38.484375-61.609375c-2.328125-3.863281-2.183594-8.730469.375-12.441406 2.554688-3.714844 7.046875-5.59375 11.488282-4.796875l61.4375 10.667969c3.007812 5.03125 1.71875 11.519531-2.984376 15.015625zm0 0" fill="#cfd8dc"/><path d="m324.265625 204.820312h51.199219c4.714844 0 8.535156 3.820313 8.535156 8.53125v17.066407c0 18.851562-15.28125 34.132812-34.132812 34.132812h-238.933594c-18.851563 0-34.132813-15.28125-34.132813-34.132812v-17.066407c0-4.710937 3.820313-8.53125 8.53125-8.53125zm0 0" fill="#f57c00"/><path d="m303.640625 204.820312h46.933594c4.507812.214844 8 4.023438 7.824219 8.53125v17.066407c.757812 18.058593-13.234376 33.324219-31.289063 34.132812h-219.019531c-18.050782-.808593-32.046875-16.074219-31.289063-34.132812v-17.066407c-.175781-4.507812 3.316407-8.316406 7.824219-8.53125zm0 0" fill="#ff9801"/><path d="m162.132812 8.550781h136.535157c47.128906 0 85.332031 38.207031 85.332031 85.335938v8.53125c0 4.714843-3.820312 8.535156-8.535156 8.535156h-290.132813c-4.710937 0-8.53125-3.820313-8.53125-8.535156v-8.53125c0-47.128907 38.203125-85.335938 85.332031-85.335938zm0 0" fill="#f57c00"/><path d="m162.132812 8.550781h110.933594c47.128906 0 85.332032 38.207031 85.332032 85.335938v8.53125c0 4.714843-3.820313 8.535156-8.53125 8.535156h-264.535157c-4.710937 0-8.53125-3.820313-8.53125-8.535156v-8.53125c0-47.128907 38.203125-85.335938 85.332031-85.335938zm0 0" fill="#ff9801"/><path d="m401.066406 174.953125c-.078125 16.460937-13.40625 29.785156-29.867187 29.867187h-46.933594v-59.734374h46.933594c16.496093 0 29.867187 13.371093 29.867187 29.867187zm0 0" fill="#c52828"/><path d="m375.464844 174.953125c-.078125 16.460937-13.402344 29.785156-29.863282 29.867187h-21.335937v-59.734374h21.335937c16.492188 0 29.863282 13.371093 29.863282 29.867187zm0 0" fill="#f44335"/><path d="m256 204.820312h-166.398438c-16.496093 0-29.867187-13.371093-29.867187-29.867187.078125-16.460937 13.402344-29.789063 29.867187-29.867187h166.398438zm0 0" fill="#f44335"/><path d="m366.933594 110.953125v34.132813h-42.667969v76.800781c0 9.425781-7.640625 17.066406-17.066406 17.066406s-17.066407-7.640625-17.066407-17.066406v-17.066407c0 9.425782-7.640624 17.066407-17.066406 17.066407-9.425781 0-17.066406-7.640625-17.066406-17.066407v-59.734374h-170.667969v-34.132813zm0 0" fill="#fec108"/><path d="m392.535156 426.6875h-366.933594c-14.140624 0-25.601562-11.464844-25.601562-25.601562v-119.46875c0-14.136719 11.460938-25.597657 25.601562-25.597657h409.597657c14.140625 0 25.601562 11.460938 25.601562 25.597657v136.535156h-17.066406v-136.535156c0-4.710938-3.820313-8.53125-8.535156-8.53125h-409.597657c-4.714843 0-8.535156 3.820312-8.535156 8.53125v119.46875c0 4.710937 3.820313 8.53125 8.535156 8.53125h366.933594zm0 0"/><path d="m503.464844 503.484375c-2.023438.003906-3.984375-.71875-5.527344-2.03125l-37.835938-32.195313c-3.589843-3.0625-4.015624-8.457031-.953124-12.042968 3.0625-3.589844 8.457031-4.015625 12.046874-.953125l37.835938 32.1875c2.730469 2.320312 3.71875 6.101562 2.476562 9.464843-1.246093 3.363282-4.457031 5.585938-8.042968 5.570313zm0 0"/><path d="m85.332031 392.550781h-25.597656c-9.425781 0-17.066406-7.640625-17.066406-17.066406v-68.265625c0-9.425781 7.640625-17.066406 17.066406-17.066406h25.597656c9.425781 0 17.066407 7.640625 17.066407 17.066406v68.265625c0 9.425781-7.640626 17.066406-17.066407 17.066406zm-25.597656-85.332031v68.265625h25.597656v-68.265625zm0 0"/><path d="m230.398438 392.550781h-8.53125c-9.425782 0-17.066407-7.640625-17.066407-17.066406v-68.265625c0-9.425781 7.640625-17.066406 17.066407-17.066406h8.53125c18.851562 0 34.136718 15.28125 34.136718 34.132812v34.132813c0 18.851562-15.285156 34.132812-34.136718 34.132812zm-8.53125-85.332031v68.265625h8.53125c9.425781 0 17.066406-7.640625 17.066406-17.066406v-34.132813c0-9.425781-7.640625-17.066406-17.066406-17.066406zm0 0"/><path d="m332.800781 392.550781h-34.132812c-9.425781 0-17.066407-7.640625-17.066407-17.066406v-68.265625c0-9.425781 7.640626-17.066406 17.066407-17.066406h34.132812c4.710938 0 8.53125 3.820312 8.53125 8.535156 0 4.710938-3.820312 8.53125-8.53125 8.53125h-34.132812v68.265625h34.132812c4.710938 0 8.53125 3.820313 8.53125 8.535156 0 4.710938-3.820312 8.53125-8.53125 8.53125zm0 0"/><path d="m162.132812 349.886719h-34.132812c-4.710938 0-8.535156-3.820313-8.535156-8.535157v-34.132812c0-9.425781 7.644531-17.066406 17.070312-17.066406h25.597656c9.425782 0 17.066407 7.640625 17.066407 17.066406v25.601562c0 9.425782-7.640625 17.066407-17.066407 17.066407zm-25.597656-17.066407h25.597656v-25.601562h-25.597656zm0 0"/><path d="m128 392.550781c-4.710938 0-8.535156-3.820312-8.535156-8.53125v-42.667969c0-4.710937 3.824218-8.53125 8.535156-8.53125s8.535156 3.820313 8.535156 8.53125v42.667969c0 4.710938-3.824218 8.53125-8.535156 8.53125zm0 0"/><path d="m179.199219 392.550781c-2.996094.003907-5.777344-1.566406-7.320313-4.136719l-25.601562-42.667968c-2.324219-4.03125-.988282-9.179688 3-11.574219 3.984375-2.398437 9.160156-1.160156 11.628906 2.785156l25.597656 42.667969c1.582032 2.632812 1.628906 5.917969.117188 8.59375-1.515625 2.675781-4.347656 4.328125-7.421875 4.332031zm0 0"/><path d="m401.066406 349.886719h-34.132812c-4.714844 0-8.535156-3.820313-8.535156-8.535157v-34.132812c0-9.425781 7.640624-17.066406 17.066406-17.066406h25.601562c9.425782 0 17.066406 7.640625 17.066406 17.066406v25.601562c0 9.425782-7.640624 17.066407-17.066406 17.066407zm-25.601562-17.066407h25.601562v-25.601562h-25.601562zm0 0"/><path d="m366.933594 392.550781c-4.714844 0-8.535156-3.820312-8.535156-8.53125v-42.667969c0-4.710937 3.820312-8.53125 8.535156-8.53125 4.710937 0 8.53125 3.820313 8.53125 8.53125v42.667969c0 4.710938-3.820313 8.53125-8.53125 8.53125zm0 0"/><path d="m418.132812 392.550781c-2.996093.003907-5.777343-1.566406-7.320312-4.136719l-25.601562-42.667968c-1.636719-2.613282-1.734376-5.910156-.253907-8.617188 1.480469-2.707031 4.304688-4.40625 7.390625-4.441406 3.085938-.035156 5.949219 1.597656 7.488282 4.269531l25.601562 42.667969c1.582031 2.632812 1.628906 5.917969.113281 8.59375-1.511719 2.675781-4.34375 4.328125-7.417969 4.332031zm0 0"/><path d="m332.800781 349.886719h-42.667969c-4.710937 0-8.53125-3.820313-8.53125-8.535157 0-4.710937 3.820313-8.53125 8.53125-8.53125h42.667969c4.710938 0 8.53125 3.820313 8.53125 8.53125 0 4.714844-3.820312 8.535157-8.53125 8.535157zm0 0"/><path d="m448.417969 512.019531c-7.007813.003907-13.492188-3.691406-17.066407-9.71875l-44.195312-70.699219c-4.09375-6.71875-3.871094-15.21875.570312-21.710937 4.445313-6.496094 12.28125-9.785156 20.03125-8.402344l79.402344 13.730469c7.847656 1.382812 14.125 7.292969 15.980469 15.046875 1.851563 7.75-1.074219 15.863281-7.449219 20.644531l-22.238281 16.683594-5.289063 28.261719c-1.558593 8.164062-8.023437 14.496093-16.214843 15.890625-1.164063.195312-2.347657.285156-3.53125.273437zm-44.261719-93.78125c-1.042969.03125-1.996094.613281-2.496094 1.527344-.503906.917969-.480468 2.03125.054688 2.925781l44.167968 70.726563c.585938 1.136719 1.851563 1.753906 3.105469 1.507812 1.21875-.164062 2.183594-1.101562 2.382813-2.3125l5.871094-31.425781c.394531-2.097656 1.5625-3.96875 3.269531-5.25l24.898437-18.679688c.9375-.699218 1.367188-1.886718 1.097656-3.023437-.269531-1.136719-1.183593-2.007813-2.335937-2.214844l-79.359375-13.714843h-.066406c-.195313-.035157-.394532-.058594-.589844-.066407zm0 0"/><path d="m349.867188 273.085938h-238.933594c-23.550782-.027344-42.640625-19.113282-42.667969-42.667969v-17.066407c0-9.425781 7.640625-17.066406 17.066406-17.066406h170.667969c4.710938 0 8.535156 3.820313 8.535156 8.535156 0 4.710938-3.824218 8.53125-8.535156 8.53125h-170.667969v17.066407c0 14.140625 11.460938 25.601562 25.601563 25.601562h238.933594c14.136718 0 25.597656-11.460937 25.597656-25.601562v-17.066407h-51.199219c-4.710937 0-8.53125-3.820312-8.53125-8.53125 0-4.714843 3.820313-8.535156 8.53125-8.535156h51.199219c9.425781 0 17.070312 7.640625 17.070312 17.066406v17.066407c-.03125 23.554687-19.117187 42.640625-42.667968 42.667969zm0 0"/><path d="m375.464844 119.484375h-290.132813c-9.425781 0-17.066406-7.640625-17.066406-17.066406v-8.53125c.0625-51.816407 42.050781-93.8046878 93.867187-93.8671878h136.535157c51.816406.0625 93.804687 42.0507808 93.867187 93.8671878v8.53125c0 9.425781-7.644531 17.066406-17.070312 17.066406zm-213.332032-102.398437c-42.394531.050781-76.746093 34.40625-76.800781 76.800781v8.53125h290.132813v-8.53125c-.050782-42.394531-34.402344-76.75-76.796875-76.800781zm0 0"/><path d="m371.199219 213.351562h-46.933594c-4.710937 0-8.53125-3.820312-8.53125-8.53125 0-4.714843 3.820313-8.535156 8.53125-8.535156h46.933594c11.75-.074218 21.257812-9.582031 21.335937-21.332031 0-11.78125-9.554687-21.335937-21.335937-21.335937h-46.933594c-4.710937 0-8.53125-3.820313-8.53125-8.53125 0-4.714844 3.820313-8.535157 8.53125-8.535157h46.933594c21.199219.023438 38.378906 17.203125 38.402343 38.402344-.070312 21.179687-17.222656 38.328125-38.402343 38.398437zm0 0"/><path d="m256 213.351562h-166.398438c-21.199218-.023437-38.378906-17.199218-38.402343-38.398437.070312-21.179687 17.222656-38.332031 38.402343-38.402344h166.398438c4.710938 0 8.535156 3.820313 8.535156 8.535157 0 4.710937-3.824218 8.53125-8.535156 8.53125h-166.398438c-11.753906.078124-21.261718 9.585937-21.335937 21.335937 0 11.78125 9.550781 21.332031 21.335937 21.332031h166.398438c4.710938 0 8.535156 3.820313 8.535156 8.535156 0 4.710938-3.824218 8.53125-8.535156 8.53125zm0 0"/><path d="m366.933594 153.617188h-42.667969c-4.710937 0-8.53125-3.820313-8.53125-8.53125 0-4.714844 3.820313-8.535157 8.53125-8.535157h34.132813v-17.066406h-264.53125v17.066406h162.132812c4.710938 0 8.535156 3.820313 8.535156 8.535157 0 4.710937-3.824218 8.53125-8.535156 8.53125h-170.667969c-4.710937 0-8.53125-3.820313-8.53125-8.53125v-34.132813c0-4.714844 3.820313-8.535156 8.53125-8.535156h281.601563c4.710937 0 8.53125 3.820312 8.53125 8.535156v34.132813c0 4.710937-3.820313 8.53125-8.53125 8.53125zm0 0"/><path d="m273.066406 230.417969c-14.136718 0-25.601562-11.460938-25.601562-25.597657v-59.734374c0-4.714844 3.824218-8.535157 8.535156-8.535157s8.535156 3.820313 8.535156 8.535157v59.734374c0 4.710938 3.820313 8.53125 8.53125 8.53125 4.714844 0 8.535156-3.820312 8.535156-8.53125 0-4.714843 3.820313-8.535156 8.53125-8.535156 4.714844 0 8.535157 3.820313 8.535157 8.535156 0 14.136719-11.460938 25.597657-25.601563 25.597657zm0 0"/><path d="m307.199219 247.484375c-14.136719 0-25.597657-11.460937-25.597657-25.597656v-42.667969c0-4.710938 3.820313-8.53125 8.53125-8.53125 4.714844 0 8.535157 3.820312 8.535157 8.53125v42.667969c0 4.710937 3.820312 8.53125 8.53125 8.53125 4.714843 0 8.535156-3.820313 8.535156-8.53125v-76.800781c0-4.714844 3.820313-8.535157 8.53125-8.535157 4.714844 0 8.535156 3.820313 8.535156 8.535157v76.800781c0 14.136719-11.460937 25.597656-25.601562 25.597656zm0 0"/><path d="m145.066406 59.753906c-3.449218-.003906-6.5625-2.082031-7.882812-5.269531-1.320313-3.1875-.589844-6.859375 1.851562-9.296875l8.53125-8.535156c2.144532-2.21875 5.316406-3.109375 8.300782-2.328125 2.980468.78125 5.3125 3.113281 6.09375 6.097656.78125 2.980469-.109376 6.15625-2.328126 8.296875l-8.53125 8.535156c-1.601562 1.597656-3.773437 2.5-6.035156 2.5zm0 0"/><path d="m196.265625 59.753906c-3.449219-.003906-6.558594-2.082031-7.882813-5.269531-1.320312-3.1875-.589843-6.859375 1.851563-9.296875l8.53125-8.535156c2.144531-2.21875 5.316406-3.109375 8.300781-2.328125s5.3125 3.113281 6.09375 6.097656c.78125 2.980469-.109375 6.15625-2.328125 8.296875l-8.53125 8.535156c-1.601562 1.597656-3.769531 2.5-6.035156 2.5zm0 0"/><path d="m256 59.753906c-3.449219-.003906-6.5625-2.082031-7.882812-5.269531-1.320313-3.1875-.589844-6.859375 1.851562-9.296875l8.53125-8.535156c2.144531-2.21875 5.316406-3.109375 8.300781-2.328125 2.980469.78125 5.3125 3.113281 6.09375 6.097656.78125 2.980469-.109375 6.15625-2.328125 8.296875l-8.535156 8.535156c-1.597656 1.597656-3.769531 2.5-6.03125 2.5zm0 0"/><path d="m307.199219 59.753906c-3.449219-.003906-6.5625-2.082031-7.882813-5.269531-1.320312-3.1875-.589844-6.859375 1.851563-9.296875l8.53125-8.535156c2.144531-2.21875 5.316406-3.109375 8.300781-2.328125s5.3125 3.113281 6.09375 6.097656c.78125 2.980469-.109375 6.15625-2.328125 8.296875l-8.53125 8.535156c-1.601563 1.597656-3.769531 2.5-6.035156 2.5zm0 0"/></svg>