<svg height="512pt" viewBox="0 0 512 512.02562" width="512pt" xmlns="http://www.w3.org/2000/svg"><path d="m25.613281 426.667969h359.464844c.484375 1.71875 1.1875 3.371093 2.09375 4.914062l44.175781 70.722657c3.570313 6.027343 10.058594 9.722656 17.066406 9.722656 1.167969 0 2.335938-.101563 3.488282-.300782 8.191406-1.394531 14.65625-7.726562 16.214844-15.890624l3.191406-17.066407 26.625 22.65625c2.324218 1.984375 5.527344 2.574219 8.402344 1.554688 2.878906-1.023438 4.992187-3.5 5.546874-6.503907.554688-3.003906-.535156-6.074218-2.855468-8.054687l-29.707032-25.265625 16.359376-12.273438c6.375-4.78125 9.300781-12.894531 7.445312-20.644531-1.851562-7.753906-8.128906-13.664062-15.976562-15.050781l-26.335938-4.546875v-129.039063c0-14.140624-11.460938-25.601562-25.601562-25.601562h-51.421876c5.648438-7.34375 8.726563-16.335938 8.757813-25.601562v-17.066407c-.015625-2.003906-.390625-3.992187-1.101563-5.871093 11.296876-6.949219 18.175782-19.265626 18.167969-32.527344-.0625-19.496094-14.753906-35.835938-34.132812-37.964844v-17.503906c9.425781 0 17.066406-7.640625 17.066406-17.066406v-8.53125c-.0625-51.816407-42.050781-93.804688-93.867187-93.867188h-136.535157c-51.8125.0625-93.804687 42.050781-93.863281 93.867188v8.53125c.015625 6.070312 3.269531 11.671874 8.53125 14.695312v21.769531c-5.371094 1.847657-10.25 4.894531-14.265625 8.910157-7.285156 7.15625-11.371094 16.949218-11.335937 27.160156.027343 13.25 6.902343 25.542968 18.179687 32.503906-.71875 1.882812-1.097656 3.878906-1.109375 5.894531v17.066407c.03125 9.265624 3.105469 18.257812 8.753906 25.601562h-51.421875c-14.140625 0-25.6015622 11.460938-25.6015622 25.601562v119.464844c0 14.140625 11.4609372 25.601563 25.6015622 25.601563zm460.910157 7.542969c.308593 1.140624-.128907 2.351562-1.101563 3.027343l-24.898437 18.679688c-.246094.238281-.476563.492187-.691407.761719-.238281.164062-.46875.34375-.683593.535156-.136719.15625-.171876.359375-.289063.523437-.34375.496094-.628906 1.03125-.855469 1.59375-.214844.4375-.386718.890625-.519531 1.355469-.042969.164062-.160156.308594-.195313.480469l-5.863281 31.425781c-.199219 1.210938-1.164062 2.148438-2.378906 2.3125-1.257813.246094-2.523437-.371094-3.109375-1.507812l-44.167969-70.726563c-.535156-.894531-.554687-2.007813-.054687-2.925781.503906-.914063 1.453125-1.496094 2.496094-1.527344.203124 0 .40625.019531.605468.050781h.070313l79.359375 13.714844c1.148437.195313 2.054687 1.082031 2.277344 2.226563zm-93.976563-259.277344c-.074219 11.75-9.582031 21.257812-21.335937 21.332031h-38.398438v-42.664063h38.398438c11.785156 0 21.335937 9.550782 21.335937 21.332032zm-34.132813-38.398438h-34.132812c-4.714844 0-8.535156 3.820313-8.535156 8.53125v76.800782c0 4.710937-3.820313 8.53125-8.535156 8.53125-4.710938 0-8.53125-3.820313-8.53125-8.53125v-42.667969c0-4.710938-3.820313-8.53125-8.535157-8.53125-4.710937 0-8.53125 3.820312-8.53125 8.53125v25.601562c0 4.710938-3.820312 8.53125-8.535156 8.53125-4.710937 0-8.53125-3.820312-8.53125-8.53125v-59.734375c0-4.710937-3.820313-8.53125-8.535156-8.53125h-162.132813v-17.070312h264.535156zm-273.066406-42.667968c.050782-42.394532 34.40625-76.75 76.796875-76.800782h136.535157c42.394531.050782 76.75 34.40625 76.800781 76.800782v8.53125h-290.132813zm-10.738281 65.980468c3.953125-4.023437 9.363281-6.273437 15.003906-6.246094h157.867188v42.664063h-157.867188c-11.78125 0-21.332031-9.550781-21.332031-21.332031-.019531-5.679688 2.265625-11.121094 6.328125-15.085938zm10.738281 70.550782v-17.066407h163.703125c2.277344 6.582031 7.164063 11.9375 13.507813 14.8125 6.347656 2.871094 13.59375 3.007813 20.042968.378907 3.320313 12.386718 15.3125 20.394531 28.027344 18.707031 12.714844-1.683594 22.207032-12.539063 22.183594-25.363281v-8.535157h42.667969v17.066407c0 14.140624-11.460938 25.601562-25.601563 25.601562h-238.933594c-14.136718 0-25.597656-11.460938-25.597656-25.601562zm-68.269531 51.203124c0-4.714843 3.820313-8.535156 8.535156-8.535156h409.597657c4.714843 0 8.535156 3.820313 8.535156 8.535156v126.085938l-35.976563-6.21875c-7.625-1.414062-15.375 1.765625-19.804687 8.132812h-362.351563c-4.714843 0-8.535156-3.820312-8.535156-8.535156zm0 0"/><path d="m59.746094 392.535156h25.601562c9.425782 0 17.066406-7.644531 17.066406-17.070312v-68.265625c0-9.425781-7.640624-17.066407-17.066406-17.066407h-25.601562c-9.425782 0-17.066406 7.640626-17.066406 17.066407v68.265625c0 9.425781 7.640624 17.070312 17.066406 17.070312zm0-85.335937h25.601562v68.265625h-25.601562zm0 0"/><path d="m221.878906 392.535156h8.535156c18.851563 0 34.132813-15.285156 34.132813-34.136718v-34.132813c0-18.851563-15.28125-34.132813-34.132813-34.132813h-8.535156c-9.425781 0-17.066406 7.640626-17.066406 17.066407v68.265625c0 9.425781 7.640625 17.070312 17.066406 17.070312zm0-85.335937h8.535156c9.425782 0 17.066407 7.640625 17.066407 17.066406v34.132813c0 9.425781-7.640625 17.066406-17.066407 17.066406h-8.535156zm0 0"/><path d="m298.679688 392.535156h34.132812c4.714844 0 8.535156-3.824218 8.535156-8.535156s-3.820312-8.535156-8.535156-8.535156h-34.132812v-25.597656h34.132812c4.714844 0 8.535156-3.820313 8.535156-8.535157 0-4.710937-3.820312-8.53125-8.535156-8.53125h-34.132812v-25.601562h34.132812c4.714844 0 8.535156-3.820313 8.535156-8.53125 0-4.714844-3.820312-8.535157-8.535156-8.535157h-34.132812c-9.425782 0-17.066407 7.640626-17.066407 17.066407v68.265625c0 9.425781 7.640625 17.070312 17.066407 17.070312zm0 0"/><path d="m128.011719 392.535156c4.714843 0 8.535156-3.824218 8.535156-8.535156v-34.132812h12.234375l23.117188 38.527343c1.542968 2.671875 4.40625 4.304688 7.492187 4.269531 3.085937-.035156 5.910156-1.734374 7.390625-4.441406 1.480469-2.707031 1.382812-6-.253906-8.617187l-18.511719-30.847657c6.703125-2.457031 11.167969-8.820312 11.195313-15.957031v-25.601562c0-9.425781-7.640626-17.066407-17.066407-17.066407h-25.597656c-9.425781 0-17.066406 7.640626-17.066406 17.066407v76.800781c0 4.710938 3.820312 8.535156 8.53125 8.535156zm8.535156-85.335937h25.597656v25.601562h-25.597656zm0 0"/><path d="m366.945312 392.535156c4.714844 0 8.535157-3.824218 8.535157-8.535156v-34.132812h12.234375l23.117187 38.527343c1.542969 2.671875 4.40625 4.304688 7.492188 4.269531 3.085937-.035156 5.910156-1.734374 7.390625-4.441406 1.476562-2.707031 1.382812-6-.253906-8.617187l-18.511719-30.847657c6.703125-2.457031 11.167969-8.820312 11.195312-15.957031v-25.601562c0-9.425781-7.640625-17.066407-17.066406-17.066407h-25.597656c-9.425781 0-17.066407 7.640626-17.066407 17.066407v76.800781c0 4.710938 3.820313 8.535156 8.53125 8.535156zm8.535157-85.335937h25.597656v25.601562h-25.597656zm0 0"/><path d="m147.578125 36.632812-8.53125 8.535157c-2.21875 2.140625-3.109375 5.3125-2.328125 8.296875s3.113281 5.3125 6.09375 6.09375c2.984375.78125 6.15625-.105469 8.300781-2.324219l8.53125-8.535156c2.21875-2.140625 3.109375-5.316407 2.328125-8.296875-.78125-2.984375-3.109375-5.316406-6.09375-6.097656-2.984375-.777344-6.15625.109374-8.300781 2.328124zm0 0"/><path d="m198.78125 36.632812-8.535156 8.535157c-2.21875 2.140625-3.109375 5.3125-2.328125 8.296875s3.113281 5.3125 6.097656 6.09375c2.980469.78125 6.15625-.105469 8.296875-2.324219l8.535156-8.535156c2.214844-2.140625 3.105469-5.316407 2.324219-8.296875-.78125-2.984375-3.109375-5.316406-6.09375-6.097656-2.984375-.777344-6.15625.109374-8.296875 2.328124zm0 0"/><path d="m258.511719 36.632812-8.53125 8.535157c-2.21875 2.140625-3.109375 5.3125-2.328125 8.296875s3.109375 5.3125 6.09375 6.09375 6.15625-.105469 8.300781-2.324219l8.53125-8.535156c2.21875-2.140625 3.109375-5.316407 2.328125-8.296875-.78125-2.984375-3.109375-5.316406-6.09375-6.097656-2.984375-.777344-6.15625.109374-8.300781 2.328124zm0 0"/><path d="m309.714844 36.632812-8.535156 8.535157c-2.21875 2.140625-3.109376 5.3125-2.328126 8.296875s3.113282 5.3125 6.09375 6.09375c2.984376.78125 6.15625-.105469 8.300782-2.324219l8.53125-8.535156c2.21875-2.140625 3.109375-5.316407 2.328125-8.296875-.78125-2.984375-3.109375-5.316406-6.09375-6.097656-2.984375-.777344-6.15625.109374-8.296875 2.328124zm0 0"/></svg>