<svg height="512pt" viewBox="0 -51 512.00058 512" width="512pt" xmlns="http://www.w3.org/2000/svg"><path d="m315.734375 145.066406v-85.332031c-.050781-.398437-.128906-.792969-.238281-1.179687.015625-.296876.015625-.597657 0-.894532l-6.921875-27.699218c-1.910157-7.582032-8.730469-12.894532-16.546875-12.894532h-72.054688c-7.8125.011719-14.621094 5.324219-16.53125 12.902344l-6.917968 27.691406c-.019532.296875-.019532.597656 0 .894532-.117188.386718-.203126.78125-.257813 1.179687v85.332031c0 9.425782 7.640625 17.066406 17.066406 17.066406h85.335938c9.425781 0 17.066406-7.640624 17.066406-17.066406zm-95.761719-110.933594h72.03125l4.265625 17.066407h-80.546875zm-6.640625 34.132813h85.335938v76.800781h-85.335938zm0 0"/><path d="m503.464844 136.535156v-61.757812c3.265625-1.785156 5.804687-4.644532 7.1875-8.097656 2.742187-6.664063 1.226562-14.324219-3.847656-19.4375-.457032-.433594-.953126-.820313-1.484376-1.152344l-42.199218-25.910156c-6.804688-3.90625-15.1875-3.851563-21.9375.148437l-41.925782 25.753906c-.53125.328125-1.027343.714844-1.476562 1.148438-5.078125 5.117187-6.597656 12.773437-3.855469 19.441406 1.378907 3.433594 3.902344 6.289063 7.140625 8.082031v61.78125c0 9.425782 7.640625 17.066406 17.066406 17.066406h68.265626c9.425781 0 17.066406-7.640624 17.066406-17.066406zm-53.570313-101.546875c1.371094-.867187 3.105469-.921875 4.53125-.144531l40.507813 24.890625h-85.273438zm-31.761719 41.8125h68.265626v59.734375h-25.597657v-17.066406c0-4.714844-3.820312-8.535156-8.535156-8.535156-4.710937 0-8.53125 3.820312-8.53125 8.535156v17.066406h-25.601563zm0 0"/><path d="m267.035156 335.300781-19.570312 19.566407-2.5-2.5c-3.347656-3.234376-8.667969-3.1875-11.960938.105468-3.292968 3.289063-3.335937 8.613282-.105468 11.960938l8.535156 8.53125c3.332031 3.332031 8.734375 3.332031 12.066406 0l25.601562-25.597656c3.230469-3.347657 3.1875-8.671876-.105468-11.960938-3.292969-3.292969-8.613282-3.339844-11.960938-.105469zm0 0"/><path d="m494.667969 290.132812h-84.804688c-9.566406.011719-17.320312 7.765626-17.328125 17.332032v33.867187h-19.507812c-.816406-1.453125-1.820313-2.792969-2.988282-3.984375l-23.191406-19.625c-3.601562-3.046875-8.988281-2.59375-12.035156 1.007813-3.042969 3.597656-2.59375 8.984375 1.007812 12.03125l12.492188 10.570312h-32.578125v-33.867187c-.011719-9.566406-7.765625-17.320313-17.332031-17.332032h-84.804688c-9.566406.011719-17.320312 7.765626-17.332031 17.332032v33.867187h-19.625c-.8125-1.445312-1.808594-2.78125-2.96875-3.964843l-23.042969-19.628907c-2.308594-2.074219-5.5625-2.726562-8.496094-1.710937-2.933593 1.019531-5.082031 3.550781-5.609374 6.609375-.53125 3.058593.644531 6.164062 3.066406 8.105469l12.378906 10.589843h-32.503906v-33.867187c-.007813-9.566406-7.761719-17.320313-17.328125-17.332032h-84.804688c-9.570312.011719-17.3242185 7.765626-17.332031 17.332032v84.804687c.0078125 9.566407 7.761719 17.320313 17.332031 17.332031h84.804688c9.566406-.011718 17.320312-7.765624 17.328125-17.332031v-33.871093h32.503906l-12.421875 10.566406c-2.421875 1.945312-3.59375 5.046875-3.066406 8.105468.527343 3.0625 2.675781 5.589844 5.609375 6.609376 2.933594 1.019531 6.1875.363281 8.496094-1.710938l23.578124-20.070312c1.027344-1.042969 1.902344-2.21875 2.613282-3.5h19.488281v33.871093c.011719 9.566407 7.765625 17.320313 17.332031 17.332031h84.804688c9.566406-.011718 17.320312-7.765624 17.332031-17.332031v-33.871093h32.578125l-12.492188 10.550781c-3.601562 3.042969-4.050781 8.429687-1.007812 12.03125 3.046875 3.601562 8.433594 4.050781 12.035156 1.007812l23.722656-20.089843c1.015626-1.046876 1.894532-2.222657 2.609376-3.5h19.355468v33.871093c.007813 9.566407 7.761719 17.320313 17.328125 17.332031h84.804688c9.570312-.011718 17.324219-7.765624 17.332031-17.332031v-84.804687c-.007812-9.566406-7.761719-17.320313-17.332031-17.332032zm-392.269531 102.136719c0 .070313-.027344.136719-.074219.1875-.050781.046875-.117188.078125-.1875.078125l-85.070313-.265625.265625-85.070312 85.066407.265625zm196.269531 0c0 .144531-.121094.265625-.265625.265625l-85.070313-.265625.265625-85.070312 85.070313.265625zm196.265625 0c-.003906.144531-.121094.257813-.265625.265625l-85.066407-.265625.261719-85.070312 85.070313.265625zm0 0"/><path d="m70.765625 335.300781-19.566406 19.566407-2.5-2.5c-3.347657-3.234376-8.671875-3.1875-11.960938.105468-3.292969 3.289063-3.339843 8.613282-.105469 11.960938l8.535157 8.53125c3.332031 3.332031 8.734375 3.332031 12.066406 0l25.597656-25.597656c3.234375-3.347657 3.1875-8.671876-.101562-11.960938-3.292969-3.292969-8.617188-3.339844-11.964844-.105469zm0 0"/><path d="m273.066406 85.332031h-34.132812c-4.714844 0-8.535156 3.820313-8.535156 8.535157 0 4.710937 3.820312 8.53125 8.535156 8.53125h34.132812c4.714844 0 8.535156-3.820313 8.535156-8.53125 0-4.714844-3.820312-8.535157-8.535156-8.535157zm0 0"/><path d="m29.867188 0c-16.496094 0-29.867188 13.371094-29.867188 29.867188 0 16.496093 13.371094 29.867187 29.867188 29.867187 16.496093 0 29.867187-13.371094 29.867187-29.867187 0-16.496094-13.371094-29.867188-29.867187-29.867188zm0 42.667969c-7.070313 0-12.800782-5.730469-12.800782-12.800781 0-7.070313 5.730469-12.800782 12.800782-12.800782 7.070312 0 12.800781 5.730469 12.800781 12.800782 0 7.070312-5.730469 12.800781-12.800781 12.800781zm0 0"/><path d="m85.332031 145.066406c23.566407 0 42.667969-19.101562 42.667969-42.667968 0-23.5625-19.101562-42.664063-42.667969-42.664063-23.5625 0-42.664062 19.101563-42.664062 42.664063v.429687c-14.308594 2.050781-25.082031 14.066406-25.5625 28.507813-.484375 14.445312 9.464843 27.152343 23.601562 30.152343s28.390625-4.570312 33.816407-17.964843c3.519531.980468 7.15625 1.496093 10.808593 1.542968zm0-68.265625c14.140625 0 25.601563 11.460938 25.601563 25.597657 0 14.140624-11.460938 25.601562-25.601563 25.601562-14.136719 0-25.597656-11.460938-25.597656-25.601562 0-14.136719 11.460937-25.597657 25.597656-25.597657zm-38.398437 68.265625c-6.746094-.269531-12.125-5.730468-12.285156-12.480468-.164063-6.75 4.945312-12.464844 11.671874-13.058594 2.871094 6.414062 7.28125 12.015625 12.839844 16.316406-1.582031 5.441406-6.558594 9.195312-12.226562 9.222656zm0 0"/><path d="m68.265625 264.535156c0 4.710938-3.820313 8.53125-8.53125 8.53125-4.714844 0-8.535156-3.820312-8.535156-8.53125 0-4.714844 3.820312-8.535156 8.535156-8.535156 4.710937 0 8.53125 3.820312 8.53125 8.535156zm0 0"/><path d="m68.265625 230.398438c0 4.714843-3.820313 8.535156-8.53125 8.535156-4.714844 0-8.535156-3.820313-8.535156-8.535156 0-4.710938 3.820312-8.53125 8.535156-8.53125 4.710937 0 8.53125 3.820312 8.53125 8.53125zm0 0"/><path d="m264.535156 264.535156c0 4.710938-3.824218 8.53125-8.535156 8.53125s-8.535156-3.820312-8.535156-8.53125c0-4.714844 3.824218-8.535156 8.535156-8.535156s8.535156 3.820312 8.535156 8.535156zm0 0"/><path d="m264.535156 230.398438c0 4.714843-3.824218 8.535156-8.535156 8.535156s-8.535156-3.820313-8.535156-8.535156c0-4.710938 3.824218-8.53125 8.535156-8.53125s8.535156 3.820312 8.535156 8.53125zm0 0"/><path d="m460.800781 264.535156c0 4.710938-3.820312 8.53125-8.535156 8.53125-4.710937 0-8.53125-3.820312-8.53125-8.53125 0-4.714844 3.820313-8.535156 8.53125-8.535156 4.714844 0 8.535156 3.820312 8.535156 8.535156zm0 0"/><path d="m460.800781 230.398438c0 4.714843-3.820312 8.535156-8.535156 8.535156-4.710937 0-8.53125-3.820313-8.53125-8.535156 0-4.710938 3.820313-8.53125 8.53125-8.53125 4.714844 0 8.535156 3.820312 8.535156 8.53125zm0 0"/><path d="m68.265625 196.265625c0 4.714844-3.820313 8.535156-8.53125 8.535156-4.714844 0-8.535156-3.820312-8.535156-8.535156 0-4.710937 3.820312-8.53125 8.535156-8.53125 4.710937 0 8.53125 3.820313 8.53125 8.53125zm0 0"/><path d="m264.535156 196.265625c0 4.714844-3.824218 8.535156-8.535156 8.535156s-8.535156-3.820312-8.535156-8.535156c0-4.710937 3.824218-8.53125 8.535156-8.53125s8.535156 3.820313 8.535156 8.53125zm0 0"/><path d="m460.800781 196.265625c0 4.714844-3.820312 8.535156-8.535156 8.535156-4.710937 0-8.53125-3.820312-8.53125-8.535156 0-4.710937 3.820313-8.53125 8.53125-8.53125 4.714844 0 8.535156 3.820313 8.535156 8.53125zm0 0"/></svg>