<svg height="512pt" viewBox="0 0 512 512" width="512pt" xmlns="http://www.w3.org/2000/svg"><path d="m486.398438 170.667969h-17.917969c.058593-.769531.152343-1.527344.203125-2.296875 2.429687-27.910156.804687-56.019532-4.820313-83.464844-1.644531-13.828125-8.472656-26.519531-19.105469-35.515625-11.863281-8.285156-36.695312-16.050781-70.136718 25.0625-11.335938 14.3125-20.347656 30.316406-26.707032 47.429687-4.332031-11.679687-15.457031-19.445312-27.914062-19.484374-7.070312 0-12.800781-5.730469-12.800781-12.796876v-38.402343c4.714843 0 8.535156-3.820313 8.535156-8.53125v-17.066407c0-14.140624-11.460937-25.601562-25.601563-25.601562h-34.132812c-14.136719 0-25.601562 11.460938-25.601562 25.601562v17.066407c0 4.710937 3.820312 8.53125 8.535156 8.53125v38.402343c0 7.066407-5.730469 12.796876-12.800782 12.796876-4.4375.027343-8.8125 1.050781-12.800781 2.996093v-88.328125c-.046875-.402344-.128906-.796875-.238281-1.1875-.054688-.613281-.179688-1.21875-.367188-1.808594-.21875-.492187-.484374-.964843-.792968-1.40625-.253906-.480468-.558594-.933593-.914063-1.347656-.433593-.425781-.914062-.800781-1.433593-1.117187-.304688-.28125-.628907-.539063-.972657-.769531-.074219 0-.167969 0-.253906-.070313-.535156-.199219-1.089844-.351563-1.65625-.441406-.53125-.164063-1.078125-.277344-1.628906-.332031-.105469 0-.179688-.050782-.273438-.050782-.425781.050782-.84375.132813-1.253906.253906-.582031.054688-1.152344.167969-1.707031.339844-.519532.230469-1.011719.519532-1.46875.855469-.460938.242187-.894532.527344-1.296875.851563-.433594.445312-.816407.933593-1.144531 1.460937-.269532.300781-.519532.621094-.75.957031-7.628907 15.265625-28.050782 17.996094-34.132813 18.464844-12.820313.082031-25.527344-2.398438-37.375-7.296875-5.976563-1.980469-12.066406-4.019531-18.375-5.582031-21.613281-4.5625-43.882813-5.140625-65.707031-1.703125-.316406.082031-.632813.1875-.9375.3125-.628906.136719-1.242188.347656-1.824219.625-.414063.222656-.800781.484375-1.160156.785156-.5.34375-.953125.746094-1.359375 1.195313-.320313.378906-.605469.785156-.851563 1.21875-.308593.484374-.570312 1-.777343 1.535156-.160157.535156-.269532 1.085937-.324219 1.640625-.105469.375-.179688.761719-.222657 1.152343v145.066407h-8.53125c-14.140624 0-25.601562 11.460937-25.601562 25.597656v17.066406c0 14.140625 11.460938 25.601563 25.601562 25.601563h1.484376l37.304687 193.980468c.890625 4.945313 2.914063 9.617188 5.90625 13.652344-4.945313 16.921875-.742187 35.199219 11.09375 48.265625h-30.191406c-4.710938 0-8.53125 3.820313-8.53125 8.53125 0 4.714844 3.820312 8.535157 8.53125 8.535157h68.265625c28.226562-.027344 51.117187-22.875 51.203125-51.097657h170.664062c.035157 12.566407 4.710938 24.675781 13.132813 34.003907h-30.199219c-4.710937 0-8.53125 3.820312-8.53125 8.535156 0 4.710937 3.820313 8.53125 8.53125 8.53125h68.269531c16.089844.042968 31.257813-7.503906 40.933594-20.359375s12.726562-29.519531 8.234375-44.972657c2.972656-3.992187 4.988281-8.617187 5.886719-13.515624l37.324218-194.089844h1.484376c14.140624 0 25.601562-11.460938 25.601562-25.601563v-17.066406c0-14.136719-11.460938-25.597656-25.601562-25.597656zm-98.542969-85.453125c10.589843-13.039063 30.832031-33.230469 47.105469-21.835938 7.023437 6.597656 11.371093 15.554688 12.203124 25.15625 5.28125 25.847656 6.792969 52.324219 4.488282 78.605469-.085938 1.179687-.214844 2.347656-.316406 3.527344h-40.738282l4.8125-19.242188 7.792969 1.953125c.675781.164063 1.375.25 2.074219.246094 4.304687-.007812 7.929687-3.222656 8.449218-7.496094.523438-4.273437-2.21875-8.265625-6.394531-9.3125l-7.78125-1.945312 5.460938-21.839844c.796875-2.976562-.070313-6.15625-2.277344-8.3125-2.203125-2.152344-5.398437-2.953125-8.359375-2.089844-2.960938.867188-5.222656 3.261719-5.917969 6.265625l-5.460937 21.835938-9.796875-2.449219c-4.574219-1.140625-9.207031 1.644531-10.347657 6.21875-1.140624 4.570312 1.644532 9.203125 6.21875 10.34375l9.785157 2.441406-5.84375 23.382813h-41.351563c5-30.988281 17.417969-60.304688 36.195313-85.453125zm-174.523438 68.386718h119.46875v17.066407h-119.46875zm34.132813-128c0-4.714843 3.824218-8.535156 8.535156-8.535156h34.132812c4.714844 0 8.535157 3.820313 8.535157 8.535156v8.53125h-51.203125zm-21.332032 93.863282c16.496094 0 29.867188-13.371094 29.867188-29.863282v-38.402343h34.132812v38.402343c0 16.492188 13.371094 29.863282 29.867188 29.863282 7.070312 0 12.800781 5.734375 12.800781 12.800781v4.269531h-119.46875v-4.269531c0-7.066406 5.730469-12.800781 12.800781-12.800781zm-174.933593-34.132813h17.066406c4.714844 0 8.535156-3.820312 8.535156-8.53125 0-4.714843-3.820312-8.535156-8.535156-8.535156h-17.066406v-34.984375c17.320312-2.339844 34.914062-1.605469 51.976562 2.167969 5.648438 1.398437 11.195313 3.25 17.066407 5.203125 12.421874 4.882812 25.5625 7.699218 38.894531 8.328125 1.707031 0 3.464843-.058594 5.214843-.203125 11.332032-.679688 22.308594-4.207032 31.914063-10.257813v132.148438h-17.066406v-51.203125c0-9.425782-7.640625-17.066406-17.066407-17.066406h-76.800781c-9.425781 0-17.066406 7.640624-17.066406 17.066406v51.203125h-17.066406zm110.933593 85.335938h-76.800781v-51.203125h76.800781zm-42.667968 324.136719c-18.847656 0-34.132813-15.28125-34.132813-34.132813s15.285157-34.132813 34.132813-34.132813c18.851562 0 34.136718 15.28125 34.136718 34.132813s-15.285156 34.132813-34.136718 34.132813zm273.070312 0c-18.851562 0-34.136718-15.28125-34.136718-34.132813s15.285156-34.132813 34.136718-34.132813c18.847656 0 34.132813 15.28125 34.132813 34.132813s-15.285157 34.132813-34.132813 34.132813zm38.765625-67.480469c-11.890625-13.886719-30.296875-20.359375-48.261719-16.972657-17.964843 3.390626-32.75 16.117188-38.769531 33.382813h-176.539062c-6.015625-17.265625-20.804688-30-38.773438-33.386719-17.964843-3.390625-36.375 3.085938-48.265625 16.976563l-36.222656-188.390625h423.0625zm63.632813-213.992188c0 4.714844-3.820313 8.535157-8.535156 8.535157h-460.796876c-4.714843 0-8.535156-3.820313-8.535156-8.535157v-17.066406c0-4.710937 3.820313-8.53125 8.535156-8.53125h374.074219.171875 59.304688.15625 27.089844c4.714843 0 8.535156 3.820313 8.535156 8.53125zm0 0"/><path d="m17.066406 494.933594h-8.53125c-4.714844 0-8.535156 3.820312-8.535156 8.53125 0 4.714844 3.820312 8.535156 8.535156 8.535156h8.53125c4.714844 0 8.535156-3.820312 8.535156-8.535156 0-4.710938-3.820312-8.53125-8.535156-8.53125zm0 0"/><path d="m290.132812 512c4.714844 0 8.535157-3.820312 8.535157-8.535156 0-4.710938-3.820313-8.53125-8.535157-8.53125h-8.53125c-4.714843 0-8.535156 3.820312-8.535156 8.53125 0 4.714844 3.820313 8.535156 8.535156 8.535156zm0 0"/><path d="m72.882812 286.957031 18.289063 85.335938c2.570313 11.777343 12.972656 20.191406 25.027344 20.242187h17.722656c7.421875 0 14.476563-3.222656 19.339844-8.828125s7.054687-13.046875 6.003906-20.390625l-12.195313-85.335937c-1.847656-12.582031-12.613281-21.925781-25.332031-21.980469h-23.828125c-7.726562 0-15.042968 3.496094-19.902344 9.503906-4.859374 6.011719-6.742187 13.898438-5.125 21.453125zm18.425782-10.722656c1.613281-1.996094 4.039062-3.160156 6.601562-3.167969h23.828125c4.242188.003906 7.839844 3.128906 8.4375 7.332032l12.195313 85.332031c.347656 2.449219-.382813 4.925781-2.003906 6.796875-1.621094 1.867187-3.972657 2.9375-6.445313 2.9375h-17.722656c-4.027344.003906-7.503907-2.8125-8.347657-6.746094l-18.285156-85.335938c-.53125-2.523437.109375-5.152343 1.742188-7.148437zm0 0"/><path d="m177.195312 370.550781c1.847657 12.585938 12.617188 21.925781 25.335938 21.984375h19.335938c14.136718 0 25.597656-11.464844 25.597656-25.601562v-85.332032c0-14.140624-11.460938-25.601562-25.597656-25.601562h-31.523438c-7.421875 0-14.476562 3.21875-19.339844 8.824219-4.863281 5.605469-7.050781 13.046875-6.003906 20.394531zm6.707032-94.539062c1.609375-1.882813 3.964844-2.960938 6.441406-2.945313h31.523438c4.710937 0 8.53125 3.820313 8.53125 8.535156v85.332032c0 4.710937-3.820313 8.53125-8.53125 8.53125h-19.335938c-4.246094-.003906-7.84375-3.125-8.441406-7.328125l-12.191406-85.332031c-.371094-2.449219.363281-4.9375 2.003906-6.792969zm0 0"/><path d="m378.078125 392.535156h17.722656c12.054688-.050781 22.457031-8.464844 25.027344-20.242187l18.289063-85.335938c1.617187-7.554687-.265626-15.441406-5.125-21.453125-4.859376-6.007812-12.175782-9.503906-19.902344-9.503906h-23.828125c-12.71875.054688-23.484375 9.398438-25.332031 21.980469l-12.195313 85.335937c-1.050781 7.34375 1.140625 14.785156 6.003906 20.390625s11.917969 8.828125 19.339844 8.828125zm3.746094-112.148437c.601562-4.199219 4.199219-7.316407 8.4375-7.320313h23.828125c2.574218 0 5.011718 1.164063 6.632812 3.167969 1.621094 2 2.25 4.628906 1.710938 7.148437l-18.285156 85.335938c-.847657 3.929688-4.324219 6.742188-8.347657 6.738281h-17.722656c-2.472656 0-4.824219-1.070312-6.445313-2.941406-1.621093-1.867187-2.351562-4.34375-2.003906-6.792969zm0 0"/><path d="m290.132812 392.535156h19.335938c12.71875-.058594 23.488281-9.398437 25.335938-21.984375l12.195312-85.332031c1.046875-7.347656-1.140625-14.789062-6.003906-20.394531-4.863282-5.605469-11.917969-8.824219-19.339844-8.824219h-31.523438c-14.136718 0-25.597656 11.460938-25.597656 25.601562v85.332032c0 14.136718 11.460938 25.601562 25.597656 25.601562zm-8.53125-110.933594c0-4.714843 3.820313-8.535156 8.53125-8.535156h31.523438c2.472656 0 4.824219 1.074219 6.445312 2.941406 1.621094 1.867188 2.351563 4.347657 2 6.796876l-12.191406 85.332031c-.601562 4.199219-4.199218 7.316406-8.441406 7.320312h-19.335938c-4.710937 0-8.53125-3.820312-8.53125-8.53125zm0 0"/><path d="m196.265625 409.601562h-17.066406c-4.710938 0-8.53125 3.820313-8.53125 8.53125 0 4.714844 3.820312 8.535157 8.53125 8.535157h17.066406c4.714844 0 8.535156-3.820313 8.535156-8.535157 0-4.710937-3.820312-8.53125-8.535156-8.53125zm0 0"/><path d="m332.800781 409.601562h-102.402343c-4.710938 0-8.53125 3.820313-8.53125 8.53125 0 4.714844 3.820312 8.535157 8.53125 8.535157h102.402343c4.710938 0 8.53125-3.820313 8.53125-8.535157 0-4.710937-3.820312-8.53125-8.53125-8.53125zm0 0"/><path d="m102.398438 85.332031h68.269531c4.710937 0 8.53125-3.820312 8.53125-8.53125 0-4.714843-3.820313-8.535156-8.53125-8.535156h-68.269531c-4.710938 0-8.53125 3.820313-8.53125 8.535156 0 4.710938 3.820312 8.53125 8.53125 8.53125zm0 0"/></svg>