<svg height="512pt" viewBox="0 0 512 512" width="512pt" xmlns="http://www.w3.org/2000/svg"><path d="m68.265625 290.132812h93.867187v8.535157c0 14.136719 11.460938 25.597656 25.601563 25.597656 14.136719 0 25.597656-11.460937 25.597656-25.597656v-8.535157h8.535157c18.851562 0 34.132812-15.28125 34.132812-34.132812v-8.535156c-.019531-5.472656-2.664062-10.601563-7.109375-13.796875 9.480469-11.898438 9.480469-28.769531 0-40.667969 4.445313-3.195312 7.089844-8.328125 7.109375-13.800781-.0625-51.816407-42.050781-93.804688-93.867188-93.867188h-34.132812c-51.816406.0625-93.804688 42.050781-93.867188 93.867188.019532 5.472656 2.664063 10.605469 7.109376 13.800781-9.480469 11.898438-9.480469 28.769531 0 40.667969-4.445313 3.195312-7.089844 8.324219-7.109376 13.796875v8.535156c0 18.851562 15.28125 34.132812 34.132813 34.132812zm0-17.066406c-9.425781 0-17.066406-7.640625-17.066406-17.066406v-8.535156h78.371093c2.183594 6.433594 6.875 11.710937 13.007813 14.628906s13.1875 3.234375 19.554687.871094v10.101562zm-17.066406-59.734375c.332031-9.722656 8.457031-17.351562 18.183593-17.066406h58.617188v34.132813h-58.617188c-9.726562.289062-17.851562-7.339844-18.183593-17.066407zm145.066406 85.335938c0 4.710937-3.820313 8.53125-8.53125 8.53125-4.714844 0-8.535156-3.820313-8.535156-8.53125v-68.269531c0-4.710938-3.820313-8.53125-8.53125-8.53125-4.714844 0-8.535157 3.820312-8.535157 8.53125v8.535156c0 4.710937-3.820312 8.53125-8.53125 8.53125-4.714843 0-8.535156-3.820313-8.535156-8.53125v-42.667969h51.199219zm24.484375-102.402344c9.425781 0 17.066406 7.640625 17.066406 17.066406s-7.640625 17.066407-17.066406 17.066407h-7.417969v-34.132813zm18.183594 59.734375c0 9.425781-7.640625 17.066406-17.066406 17.066406h-8.535157v-25.601562h25.601563zm-110.933594-153.601562h34.132812c42.398438.046874 76.753907 34.40625 76.800782 76.800781h-187.734375c.046875-42.394531 34.40625-76.753907 76.800781-76.800781zm0 0"/><path d="m128 128c0 4.710938-3.820312 8.535156-8.535156 8.535156-4.710938 0-8.53125-3.824218-8.53125-8.535156s3.820312-8.535156 8.53125-8.535156c4.714844 0 8.535156 3.824218 8.535156 8.535156zm0 0"/><path d="m179.199219 128c0 4.710938-3.820313 8.535156-8.53125 8.535156-4.714844 0-8.535157-3.824218-8.535157-8.535156s3.820313-8.535156 8.535157-8.535156c4.710937 0 8.53125 3.824218 8.53125 8.535156zm0 0"/><path d="m213.332031 153.601562c0 4.710938-3.820312 8.53125-8.53125 8.53125-4.714843 0-8.535156-3.820312-8.535156-8.53125 0-4.714843 3.820313-8.535156 8.535156-8.535156 4.710938 0 8.53125 3.820313 8.53125 8.535156zm0 0"/><path d="m93.867188 153.601562c0 4.710938-3.820313 8.53125-8.535157 8.53125-4.710937 0-8.53125-3.820312-8.53125-8.53125 0-4.714843 3.820313-8.535156 8.53125-8.535156 4.714844 0 8.535157 3.820313 8.535157 8.535156zm0 0"/><path d="m409.601562 243.429688v-4.496094c-.035156-9.839844-4.335937-19.179688-11.792968-25.601563 10.773437-9.328125 14.621094-24.371093 9.640625-37.726562-4.976563-13.355469-17.730469-22.210938-31.984375-22.210938-14.25 0-27.003906 8.855469-31.980469 22.210938-4.980469 13.355469-1.132813 28.398437 9.640625 37.726562-7.457031 6.421875-11.761719 15.761719-11.792969 25.601563v4.496094c-18.6875 4.804687-36.140625 13.53125-51.199219 25.601562v-243.429688c0-14.140624-11.460937-25.601562-25.597656-25.601562h-237.824218c-14.746094.015625-26.695313 11.964844-26.710938 26.710938v458.578124c.015625 14.746094 11.964844 26.695313 26.710938 26.710938h236.714843c14.742188-.015625 26.695313-11.964844 26.707031-26.710938v-3.410156c43.425782 34.886719 103.703126 39.863282 152.261719 12.578125 48.5625-27.289062 75.65625-81.363281 68.4375-136.597656-7.214843-55.234375-47.289062-100.53125-101.230469-114.429687zm-51.203124-55.695313c0-9.425781 7.640624-17.066406 17.066406-17.066406 9.425781 0 17.070312 7.640625 17.070312 17.066406s-7.644531 17.066406-17.070312 17.066406c-9.425782 0-17.066406-7.640625-17.066406-17.066406zm0 51.199219c0-9.425782 7.640624-17.066406 17.066406-17.066406 9.425781 0 17.070312 7.640624 17.070312 17.066406v1.1875c-11.324218-1.582032-22.8125-1.582032-34.136718 0zm-145.066407-221.867188v8.535156c0 4.710938-3.820312 8.53125-8.53125 8.53125h-119.46875c-4.710937 0-8.53125-3.820312-8.53125-8.53125v-8.535156zm-186.621093 0h33.023437v8.535156c0 14.136719 11.460937 25.597657 25.597656 25.597657h119.46875c14.136719 0 25.597657-11.460938 25.597657-25.597657v-8.535156h34.136718c4.710938 0 8.53125 3.820313 8.53125 8.535156v259.863282c-34.253906 38.644531-43.589844 93.390625-24.082031 141.203125h-231.917969v-399.957031c.003906-5.324219 4.320313-9.640626 9.644532-9.644532zm236.714843 477.867188h-236.714843c-5.324219-.003906-9.640626-4.320313-9.644532-9.644532v-41.554687h240.339844c4.5 7.738281 9.746094 15.015625 15.660156 21.734375v19.820312c-.003906 5.324219-4.320312 9.640626-9.640625 9.644532zm112.039063 0c-48.316406 0-91.878906-29.105469-110.371094-73.75-18.492188-44.640625-8.269531-96.023438 25.898438-130.191406 34.167968-34.167969 85.550781-44.390626 130.191406-25.898438 44.644531 18.492188 73.75 62.054688 73.75 110.371094-.070313 65.953125-53.515625 119.398437-119.46875 119.46875zm0 0"/><path d="m375.464844 273.066406c-56.550782 0-102.398438 45.847656-102.398438 102.398438 0 56.554687 45.847656 102.402344 102.398438 102.402344 56.554687 0 102.402344-45.847657 102.402344-102.402344-.0625-56.527344-45.871094-102.335938-102.402344-102.398438zm8.535156 187.296875v-8.097656c0-4.710937-3.820312-8.53125-8.535156-8.53125-4.710938 0-8.53125 3.820313-8.53125 8.53125v8.097656c-40.351563-4.105469-72.257813-36.011719-76.363282-76.363281h8.097657c4.710937 0 8.53125-3.820312 8.53125-8.535156 0-4.710938-3.820313-8.53125-8.53125-8.53125h-8.097657c4.105469-40.351563 36.011719-72.257813 76.363282-76.363282v8.097657c0 4.710937 3.820312 8.53125 8.53125 8.53125 4.714844 0 8.535156-3.820313 8.535156-8.53125v-8.097657c40.351562 4.105469 72.257812 36.011719 76.363281 76.363282h-8.097656c-4.710937 0-8.53125 3.820312-8.53125 8.53125 0 4.714844 3.820313 8.535156 8.53125 8.535156h8.097656c-4.105469 40.351562-36.011719 72.257812-76.363281 76.363281zm0 0"/><path d="m187.734375 349.867188h-85.335937c-14.136719 0-25.597657 11.460937-25.597657 25.597656 0 14.140625 11.460938 25.601562 25.597657 25.601562h85.335937c14.136719 0 25.597656-11.460937 25.597656-25.601562 0-14.136719-11.460937-25.597656-25.597656-25.597656zm0 34.132812h-85.335937c-4.710938 0-8.53125-3.820312-8.53125-8.535156 0-4.710938 3.820312-8.53125 8.53125-8.53125h85.335937c4.710937 0 8.53125 3.820312 8.53125 8.53125 0 4.714844-3.820313 8.535156-8.53125 8.535156zm0 0"/><path d="m187.734375 460.800781h-85.335937c-4.710938 0-8.53125 3.820313-8.53125 8.53125 0 4.714844 3.820312 8.535157 8.53125 8.535157h85.335937c4.710937 0 8.53125-3.820313 8.53125-8.535157 0-4.710937-3.820313-8.53125-8.53125-8.53125zm0 0"/><path d="m384 371.933594v-39.132813c0-4.714843-3.820312-8.535156-8.535156-8.535156-4.710938 0-8.53125 3.820313-8.53125 8.535156v42.664063c0 2.265625.898437 4.433594 2.5 6.035156l42.667968 42.667969c3.347657 3.230469 8.667969 3.1875 11.960938-.105469s3.335938-8.613281.105469-11.960938zm0 0"/></svg>